0
SECTION
2
HEADER
9
$INSUNITS
70
4
9
$ACADVER
1
AC1014
9
$HANDSEED
5
FFFF
0
ENDSEC
0
SECTION
2
TABLES
0
TABLE
2
VPORT
5
8
100
AcDbSymbolTable
0
ENDTAB
0
TABLE
2
LTYPE
5
5
100
AcDbSymbolTable
0
LTYPE
5
14
100
AcDbSymbolTableRecord
100
AcDbLinetypeTableRecord
2
BYBLOCK
70
0
0
LTYPE
5
15
100
AcDbSymbolTableRecord
100
AcDbLinetypeTableRecord
2
BYLAYER
70
0
0
ENDTAB
0
TABLE
2
LAYER
5
2
100
AcDbSymbolTable
70
2
0
LAYER
5
50
100
AcDbSymbolTableRecord
100
AcDbLayerTableRecord
2
0
70
0
6
CONTINUOUS
0
ENDTAB
0
TABLE
2
STYLE
5
3
100
AcDbSymbolTable
70
1
0
STYLE
5
11
100
AcDbSymbolTableRecord
100
AcDbTextStyleTableRecord
2
STANDARD
70
0
0
ENDTAB
0
TABLE
2
VIEW
5
6
100
AcDbSymbolTable
70
0
0
ENDTAB
0
TABLE
2
UCS
5
7
100
AcDbSymbolTable
70
0
0
ENDTAB
0
TABLE
2
APPID
5
9
100
AcDbSymbolTable
70
2
0
APPID
5
12
100
AcDbSymbolTableRecord
100
AcDbRegAppTableRecord
2
ACAD
70
0
0
ENDTAB
0
TABLE
2
DIMSTYLE
5
A
100
AcDbSymbolTable
70
1
0
ENDTAB
0
TABLE
2
BLOCK_RECORD
5
1
100
AcDbSymbolTable
70
1
0
BLOCK_RECORD
5
1F
100
AcDbSymbolTableRecord
100
AcDbBlockTableRecord
2
*MODEL_SPACE
0
BLOCK_RECORD
5
1B
100
AcDbSymbolTableRecord
100
AcDbBlockTableRecord
2
*PAPER_SPACE
0
ENDTAB
0
ENDSEC
0
SECTION
2
BLOCKS
0
BLOCK
5
20
100
AcDbEntity
100
AcDbBlockBegin
2
*MODEL_SPACE
0
ENDBLK
5
21
100
AcDbEntity
100
AcDbBlockEnd
0
BLOCK
5
1C
100
AcDbEntity
100
AcDbBlockBegin
2
*PAPER_SPACE
0
ENDBLK
5
1D
100
AcDbEntity
100
AcDbBlockEnd
0
ENDSEC
0
SECTION
2
ENTITIES
0
LWPOLYLINE
5
100
100
AcDbEntity
8
0
100
AcDbPolyline
90
36
70
1
43
0.0
10
-27.699999999999989
20
19.755245506268917
10
-27.699999999999989
20
22.755245506268913
10
-38.09999999999998
20
22.755245506268913
10
-38.09999999999998
20
19.755245506268917
10
-48.499999999999986
20
19.755245506268917
10
-48.499999999999986
20
26.070929970395042
10
-51.499999999999986
20
26.070929970395042
10
-51.499999999999986
20
32.386729970395045
10
-48.499999999999986
20
32.386729970395045
10
-48.499999999999986
20
38.702529970395041
10
-51.499999999999986
20
38.702529970395048
10
-51.499999999999986
20
45.018329970395044
10
-48.499999999999986
20
45.018329970395044
10
-48.499999999999979
20
51.334129970395033
10
-38.09999999999998
20
51.334129970394997
10
-38.09999999999998
20
48.33412997039499
10
-27.699999999999982
20
48.334129970394997
10
-27.699999999999989
20
51.334129970395004
10
-17.29999999999999
20
51.334129970395011
10
-17.299999999999986
20
48.334129970395011
10
-6.899999999999987
20
48.334129970395026
10
-6.8999999999999897
20
51.334129970395026
10
3.5000000000000089
20
51.334129970395026
10
3.5000000000000075
20
45.01832997039503
10
6.500000000000008
20
45.018329970395037
10
6.5000000000000053
20
38.702529970395034
10
3.5000000000000053
20
38.702529970395034
10
3.5000000000000036
20
32.386729970395038
10
6.5000000000000044
20
32.386729970395031
10
6.5000000000000036
20
26.070929970395028
10
3.5000000000000027
20
26.070929970395031
10
3.5000000000000009
20
19.755245506268906
10
-6.8999999999999932
20
19.755245506268913
10
-6.8999999999999932
20
22.755245506268913
10
-17.29999999999999
20
22.755245506268913
10
-17.29999999999999
20
19.755245506268913
0
ENDSEC
0
SECTION
2
OBJECTS
0
DICTIONARY
5
C
100
AcDbDictionary
3
ACAD_GROUP
350
D
3
ACAD_MLINESTYLE
350
17
0
DICTIONARY
5
D
100
AcDbDictionary
0
DICTIONARY
5
1A
330
C
100
AcDbDictionary
0
DICTIONARY
5
17
100
AcDbDictionary
0
ENDSEC
0
EOF
