0
SECTION
2
HEADER
9
$INSUNITS
70
4
9
$ACADVER
1
AC1014
9
$HANDSEED
5
FFFF
0
ENDSEC
0
SECTION
2
TABLES
0
TABLE
2
VPORT
5
8
100
AcDbSymbolTable
0
ENDTAB
0
TABLE
2
LTYPE
5
5
100
AcDbSymbolTable
0
LTYPE
5
14
100
AcDbSymbolTableRecord
100
AcDbLinetypeTableRecord
2
BYBLOCK
70
0
0
LTYPE
5
15
100
AcDbSymbolTableRecord
100
AcDbLinetypeTableRecord
2
BYLAYER
70
0
0
ENDTAB
0
TABLE
2
LAYER
5
2
100
AcDbSymbolTable
70
2
0
LAYER
5
50
100
AcDbSymbolTableRecord
100
AcDbLayerTableRecord
2
0
70
0
6
CONTINUOUS
0
ENDTAB
0
TABLE
2
STYLE
5
3
100
AcDbSymbolTable
70
1
0
STYLE
5
11
100
AcDbSymbolTableRecord
100
AcDbTextStyleTableRecord
2
STANDARD
70
0
0
ENDTAB
0
TABLE
2
VIEW
5
6
100
AcDbSymbolTable
70
0
0
ENDTAB
0
TABLE
2
UCS
5
7
100
AcDbSymbolTable
70
0
0
ENDTAB
0
TABLE
2
APPID
5
9
100
AcDbSymbolTable
70
2
0
APPID
5
12
100
AcDbSymbolTableRecord
100
AcDbRegAppTableRecord
2
ACAD
70
0
0
ENDTAB
0
TABLE
2
DIMSTYLE
5
A
100
AcDbSymbolTable
70
1
0
ENDTAB
0
TABLE
2
BLOCK_RECORD
5
1
100
AcDbSymbolTable
70
1
0
BLOCK_RECORD
5
1F
100
AcDbSymbolTableRecord
100
AcDbBlockTableRecord
2
*MODEL_SPACE
0
BLOCK_RECORD
5
1B
100
AcDbSymbolTableRecord
100
AcDbBlockTableRecord
2
*PAPER_SPACE
0
ENDTAB
0
ENDSEC
0
SECTION
2
BLOCKS
0
BLOCK
5
20
100
AcDbEntity
100
AcDbBlockBegin
2
*MODEL_SPACE
0
ENDBLK
5
21
100
AcDbEntity
100
AcDbBlockEnd
0
BLOCK
5
1C
100
AcDbEntity
100
AcDbBlockBegin
2
*PAPER_SPACE
0
ENDBLK
5
1D
100
AcDbEntity
100
AcDbBlockEnd
0
ENDSEC
0
SECTION
2
ENTITIES
0
LWPOLYLINE
5
100
100
AcDbEntity
8
0
100
AcDbPolyline
90
4
70
1
43
0.0
10
-87.736044741989843
20
45.129392229343154
10
-90.736044741989858
20
45.129392229343154
10
-90.736044741989858
20
39.129392229343154
10
-87.736044741989843
20
39.129392229343154
0
LWPOLYLINE
5
101
100
AcDbEntity
8
0
100
AcDbPolyline
90
34
70
1
43
0.0
10
2.6997823851220648
20
1.4846151151862985
42
-0.3398634289801809
10
0.76499595285376643
20
0.0022553586254606128
10
-12
20
0.020986604225557426
10
-12
20
3.0000000000000004
10
-23.999999999999993
20
3.0000000000000004
10
-23.999999999999993
20
0.038595301324352321
10
-36
20
0.056203998423147161
10
-36
20
3.0000000000000004
10
-47.999999999999986
20
3.0000000000000004
10
-47.999999999999986
20
0.073812695521941682
10
-60.736809720222041
20
0.092502580885976127
42
-0.31489551837345509
10
-62.613260182103701
20
1.4084601410005204
10
-65.555239008963071
20
9.4914805363102488
10
-62.736161146605347
20
10.517540966287253
10
-66.156362579862048
20
19.914467174146338
10
-68.975440442219764
20
18.888406744169338
10
-73.315794866021463
20
30.813432515994485
42
0.31529878887898372
10
-75.195180107593288
20
32.129392229343154
10
-89.236044741989829
20
32.129392229343154
42
-1.6207643216422949
10
-81.217991728366485
20
48.105245797723612
10
-60.400415076419414
20
48.105245797723597
42
-0.31529878887898682
10
-58.521029834847596
20
46.789286084374936
10
-52.906763906430612
20
31.364217219235787
42
0.31529878887898322
10
-51.027378664858801
20
30.048257505887129
10
-7.8730663997012593
20
30.048257505887133
42
-0.19891236737965776
10
-6.4588528373281626
20
29.462471068260228
10
-0.55935790071649372
20
23.562976131648558
42
0.19891236737965784
10
0.8548556616566011
20
22.977189694021654
10
5.8522496411042857
20
22.977189694021654
42
-0.49314542603130346
10
7.7841012936824221
20
20.459551603816607
10
6.3486980802341488
20
15.102553881880015
10
3.450920601366942
20
15.879011017187576
10
1.7254603006834723
20
9.4395055085937898
10
4.6232377795506769
20
8.6630483732862267
0
LWPOLYLINE
5
102
100
AcDbEntity
8
0
100
AcDbPolyline
90
4
70
1
43
0.0
10
-75.815843308733136
20
37.682259159887522
10
-72.99676544637542
20
38.70831958986453
10
-74.706866163003767
20
43.406782693794064
10
-77.525944025361497
20
42.380722263817063
0
ENDSEC
0
SECTION
2
OBJECTS
0
DICTIONARY
5
C
100
AcDbDictionary
3
ACAD_GROUP
350
D
3
ACAD_MLINESTYLE
350
17
0
DICTIONARY
5
D
100
AcDbDictionary
0
DICTIONARY
5
1A
330
C
100
AcDbDictionary
0
DICTIONARY
5
17
100
AcDbDictionary
0
ENDSEC
0
EOF
