0
SECTION
2
HEADER
9
$INSUNITS
70
4
9
$ACADVER
1
AC1014
9
$HANDSEED
5
FFFF
0
ENDSEC
0
SECTION
2
TABLES
0
TABLE
2
VPORT
5
8
100
AcDbSymbolTable
0
ENDTAB
0
TABLE
2
LTYPE
5
5
100
AcDbSymbolTable
0
LTYPE
5
14
100
AcDbSymbolTableRecord
100
AcDbLinetypeTableRecord
2
BYBLOCK
70
0
0
LTYPE
5
15
100
AcDbSymbolTableRecord
100
AcDbLinetypeTableRecord
2
BYLAYER
70
0
0
ENDTAB
0
TABLE
2
LAYER
5
2
100
AcDbSymbolTable
70
2
0
LAYER
5
50
100
AcDbSymbolTableRecord
100
AcDbLayerTableRecord
2
0
70
0
6
CONTINUOUS
0
ENDTAB
0
TABLE
2
STYLE
5
3
100
AcDbSymbolTable
70
1
0
STYLE
5
11
100
AcDbSymbolTableRecord
100
AcDbTextStyleTableRecord
2
STANDARD
70
0
0
ENDTAB
0
TABLE
2
VIEW
5
6
100
AcDbSymbolTable
70
0
0
ENDTAB
0
TABLE
2
UCS
5
7
100
AcDbSymbolTable
70
0
0
ENDTAB
0
TABLE
2
APPID
5
9
100
AcDbSymbolTable
70
2
0
APPID
5
12
100
AcDbSymbolTableRecord
100
AcDbRegAppTableRecord
2
ACAD
70
0
0
ENDTAB
0
TABLE
2
DIMSTYLE
5
A
100
AcDbSymbolTable
70
1
0
ENDTAB
0
TABLE
2
BLOCK_RECORD
5
1
100
AcDbSymbolTable
70
1
0
BLOCK_RECORD
5
1F
100
AcDbSymbolTableRecord
100
AcDbBlockTableRecord
2
*MODEL_SPACE
0
BLOCK_RECORD
5
1B
100
AcDbSymbolTableRecord
100
AcDbBlockTableRecord
2
*PAPER_SPACE
0
ENDTAB
0
ENDSEC
0
SECTION
2
BLOCKS
0
BLOCK
5
20
100
AcDbEntity
100
AcDbBlockBegin
2
*MODEL_SPACE
0
ENDBLK
5
21
100
AcDbEntity
100
AcDbBlockEnd
0
BLOCK
5
1C
100
AcDbEntity
100
AcDbBlockBegin
2
*PAPER_SPACE
0
ENDBLK
5
1D
100
AcDbEntity
100
AcDbBlockEnd
0
ENDSEC
0
SECTION
2
ENTITIES
0
LINE
5
100
100
AcDbEntity
8
0
100
AcDbLine
10
2.6997823851220639
20
1.4846151151862985
30
0
11
4.6232377795506769
21
8.6630483732862267
31
2.4651903288156619e-31
0
LINE
5
101
100
AcDbEntity
8
0
100
AcDbLine
10
4.6232377795506769
20
8.6630483732862267
30
2.4651903288156619e-31
11
1.7254603006834723
21
9.4395055085937898
31
0
0
LINE
5
102
100
AcDbEntity
8
0
100
AcDbLine
10
1.7254603006834723
20
9.4395055085937898
30
0
11
3.450920601366942
21
15.879011017187576
31
0
0
LINE
5
103
100
AcDbEntity
8
0
100
AcDbLine
10
3.450920601366942
20
15.879011017187576
30
0
11
6.3486980802341488
21
15.102553881880015
31
0
0
LINE
5
104
100
AcDbEntity
8
0
100
AcDbLine
10
5.8522496411042857
20
22.977189694021654
30
0
11
0.026428536910411138
21
22.977189694021654
31
0
0
LINE
5
105
100
AcDbEntity
8
0
100
AcDbLine
10
0.026428536910411138
20
22.977189694021654
30
0
11
-6.4588528373281626
21
29.462471068260228
31
0
0
LINE
5
106
100
AcDbEntity
8
0
100
AcDbLine
10
-7.8730663997012584
20
30.048257505887129
30
0
11
-52.427793741278208
21
30.048257505887129
31
0
0
LINE
5
107
100
AcDbEntity
8
0
100
AcDbLine
10
-52.427793741278208
20
30.048257505887129
30
0
11
-58.521029834847596
21
46.789286084374936
31
0
0
LINE
5
108
100
AcDbEntity
8
0
100
AcDbLine
10
-60.400415076419414
20
48.105245797723612
30
9.8607613152626476e-31
11
-80.171610795242444
21
48.105245797723612
31
9.8607613152626476e-31
0
LINE
5
109
100
AcDbEntity
8
0
100
AcDbLine
10
-68.975440442219764
20
18.888406744169338
30
0
11
-66.156362579862048
21
19.914467174146338
31
0
0
LINE
5
110
100
AcDbEntity
8
0
100
AcDbLine
10
-66.156362579862048
20
19.914467174146338
30
0
11
-62.736161146605347
21
10.517540966287253
31
0
0
LINE
5
111
100
AcDbEntity
8
0
100
AcDbLine
10
-62.736161146605347
20
10.517540966287253
30
0
11
-65.555239008963071
21
9.4914805363102488
31
9.8607613152626476e-31
0
LINE
5
112
100
AcDbEntity
8
0
100
AcDbLine
10
-61.310811721828919
20
0.093344866501005958
30
0
11
-47.999999999999986
21
0.073812695521941682
31
0
0
LINE
5
113
100
AcDbEntity
8
0
100
AcDbLine
10
-47.999999999999986
20
0.073812695521941682
30
0
11
-47.999999999999986
21
3.0000000000000004
31
0
0
LINE
5
114
100
AcDbEntity
8
0
100
AcDbLine
10
-47.999999999999986
20
3.0000000000000004
30
0
11
-36
21
3.0000000000000004
31
0
0
LINE
5
115
100
AcDbEntity
8
0
100
AcDbLine
10
-36
20
3.0000000000000004
30
0
11
-36
21
0.056203998423147161
31
0
0
LINE
5
116
100
AcDbEntity
8
0
100
AcDbLine
10
-36
20
0.056203998423147161
30
0
11
-23.999999999999993
21
0.038595301324352321
31
0
0
LINE
5
117
100
AcDbEntity
8
0
100
AcDbLine
10
-23.999999999999993
20
0.038595301324352321
30
0
11
-23.999999999999993
21
3.0000000000000004
31
0
0
LINE
5
118
100
AcDbEntity
8
0
100
AcDbLine
10
-23.999999999999993
20
3.0000000000000004
30
0
11
-12
21
3.0000000000000004
31
0
0
LINE
5
119
100
AcDbEntity
8
0
100
AcDbLine
10
-12
20
3.0000000000000004
30
0
11
-12
21
0.020986604225557426
31
0
0
LINE
5
120
100
AcDbEntity
8
0
100
AcDbLine
10
-65.555239008963071
20
9.4914805363102488
30
0
11
-68.975440442219764
21
18.888406744169338
31
0
0
LWPOLYLINE
5
121
100
AcDbEntity
8
0
100
AcDbPolyline
90
4
70
1
43
0.0
10
-74.706866163003767
20
43.406782693794064
10
-77.525944025361497
20
42.380722263817063
10
-75.815843308733136
20
37.682259159887522
10
-72.99676544637542
20
38.70831958986453
0
LINE
5
122
100
AcDbEntity
8
0
100
AcDbLine
10
-81.814631465272043
20
47.245633046799782
30
9.8607613152626476e-31
11
-88.348908902403338
21
37.831328474724039
31
0
0
LWPOLYLINE
5
123
100
AcDbEntity
8
0
100
AcDbPolyline
90
4
70
1
43
0.0
10
-77.168503592972201
20
30.62939222934315
10
-77.168503592972201
20
33.629392229343146
10
-83.168503592972201
20
33.629392229343146
10
-83.168503592972201
20
30.62939222934315
0
ARC
5
124
100
AcDbEntity
8
0
100
AcDbCircle
10
-80.13380555225541
20
32.129392229343154
30
0
40
10
100
AcDbArc
50
145.23627111531837
51
225.12149693149149
0
LINE
5
125
100
AcDbEntity
8
0
100
AcDbLine
10
-87.189863126220999
20
25.043345975409803
30
0
11
-62.719088456931871
21
0.67613346248021511
31
0
0
ARC
5
126
100
AcDbEntity
8
0
100
AcDbCircle
10
-80.17161079524243
20
46.105245797723583
30
9.8607613152626581e-31
40
2.0000000000000284
100
AcDbArc
50
90.000000000000398
51
145.23627111531835
0
ARC
5
127
100
AcDbEntity
8
0
100
AcDbCircle
10
-61.307876942138755
20
2.0933427132668978
30
-2.4651903288156619e-31
40
2.0000000000000093
100
AcDbArc
50
225.12149693149181
51
269.91592472480414
0
LINE
5
128
100
AcDbEntity
8
0
100
AcDbLine
10
-12
20
0.020986604225557426
30
0
11
0.76499595285376643
21
0.0022553586254624755
31
0
0
ARC
5
129
100
AcDbEntity
8
0
100
AcDbCircle
10
0.76793073254392796
20
2.0022532053913453
30
-2.4651903288156619e-31
40
1.9999999999999996
100
AcDbArc
50
269.9159247248042
51
344.99999999999989
0
LINE
5
130
100
AcDbEntity
8
0
100
AcDbLine
10
6.3486980802341488
20
15.102553881880015
30
0
11
7.7841012936824221
21
20.459551603816607
31
-4.9303806576313238e-31
0
ARC
5
131
100
AcDbEntity
8
0
100
AcDbCircle
10
5.8522496411042821
20
20.977189694021646
30
0
40
2.0000000000000027
100
AcDbArc
50
-14.999999999999931
51
89.999999999999901
0
ARC
5
132
100
AcDbEntity
8
0
100
AcDbCircle
10
-7.873066399701262
20
28.048257505887129
30
0
40
2.0000000000000036
100
AcDbArc
50
45
51
89.999999999999901
0
ARC
5
133
100
AcDbEntity
8
0
100
AcDbCircle
10
-60.400415076419407
20
46.105245797723612
30
-9.8607613152626476e-31
40
1.999999999999984
100
AcDbArc
50
19.999999999999712
51
90.000000000000199
0
ENDSEC
0
SECTION
2
OBJECTS
0
DICTIONARY
5
C
100
AcDbDictionary
3
ACAD_GROUP
350
D
3
ACAD_MLINESTYLE
350
17
0
DICTIONARY
5
D
100
AcDbDictionary
0
DICTIONARY
5
1A
330
C
100
AcDbDictionary
0
DICTIONARY
5
17
100
AcDbDictionary
0
ENDSEC
0
EOF
