0
SECTION
2
HEADER
9
$INSUNITS
70
4
9
$ACADVER
1
AC1014
9
$HANDSEED
5
FFFF
0
ENDSEC
0
SECTION
2
TABLES
0
TABLE
2
VPORT
5
8
100
AcDbSymbolTable
0
ENDTAB
0
TABLE
2
LTYPE
5
5
100
AcDbSymbolTable
0
LTYPE
5
14
100
AcDbSymbolTableRecord
100
AcDbLinetypeTableRecord
2
BYBLOCK
70
0
0
LTYPE
5
15
100
AcDbSymbolTableRecord
100
AcDbLinetypeTableRecord
2
BYLAYER
70
0
0
ENDTAB
0
TABLE
2
LAYER
5
2
100
AcDbSymbolTable
70
2
0
LAYER
5
50
100
AcDbSymbolTableRecord
100
AcDbLayerTableRecord
2
0
70
0
6
CONTINUOUS
0
ENDTAB
0
TABLE
2
STYLE
5
3
100
AcDbSymbolTable
70
1
0
STYLE
5
11
100
AcDbSymbolTableRecord
100
AcDbTextStyleTableRecord
2
STANDARD
70
0
0
ENDTAB
0
TABLE
2
VIEW
5
6
100
AcDbSymbolTable
70
0
0
ENDTAB
0
TABLE
2
UCS
5
7
100
AcDbSymbolTable
70
0
0
ENDTAB
0
TABLE
2
APPID
5
9
100
AcDbSymbolTable
70
2
0
APPID
5
12
100
AcDbSymbolTableRecord
100
AcDbRegAppTableRecord
2
ACAD
70
0
0
ENDTAB
0
TABLE
2
DIMSTYLE
5
A
100
AcDbSymbolTable
70
1
0
ENDTAB
0
TABLE
2
BLOCK_RECORD
5
1
100
AcDbSymbolTable
70
1
0
BLOCK_RECORD
5
1F
100
AcDbSymbolTableRecord
100
AcDbBlockTableRecord
2
*MODEL_SPACE
0
BLOCK_RECORD
5
1B
100
AcDbSymbolTableRecord
100
AcDbBlockTableRecord
2
*PAPER_SPACE
0
ENDTAB
0
ENDSEC
0
SECTION
2
BLOCKS
0
BLOCK
5
20
100
AcDbEntity
100
AcDbBlockBegin
2
*MODEL_SPACE
0
ENDBLK
5
21
100
AcDbEntity
100
AcDbBlockEnd
0
BLOCK
5
1C
100
AcDbEntity
100
AcDbBlockBegin
2
*PAPER_SPACE
0
ENDBLK
5
1D
100
AcDbEntity
100
AcDbBlockEnd
0
ENDSEC
0
SECTION
2
ENTITIES
0
LWPOLYLINE
5
100
100
AcDbEntity
8
0
100
AcDbPolyline
90
4
70
1
43
0.0
10
3.8548556616565799
20
25.935117151388916
10
3.8548556616565799
20
22.977189694021661
10
10.418220138472323
20
22.977189694021661
10
10.418220138472321
20
25.935117151388916
0
LWPOLYLINE
5
101
100
AcDbEntity
8
0
100
AcDbPolyline
90
4
70
1
43
0.0
10
-2.1727130463973254
20
28.519905451519683
10
0.46012071325991055
20
29.958024498750873
10
-2.567503379574342
20
35.500841651831934
10
-5.2003371392315776
20
34.062722604600744
0
LWPOLYLINE
5
102
100
AcDbEntity
8
0
100
AcDbPolyline
90
4
70
1
43
0.0
10
-8.2279612320658231
20
39.605539757681797
10
-5.5951274724085884
20
41.043658804912994
10
-8.6227515652428401
20
46.586475957994047
10
-11.255585324900075
20
45.148356910762857
0
LWPOLYLINE
5
103
100
AcDbEntity
8
0
100
AcDbPolyline
90
20
70
1
43
0.0
10
-64.940111382953475
20
52.12929311107505
10
-64.940111382953475
20
49.12929311107505
10
-51.620111382953475
20
49.12929311107505
10
-51.620111382953475
20
52.12929311107505
10
-38.300111382953475
20
52.12929311107505
10
-38.300111382953475
20
49.12929311107505
10
-24.980111382953474
20
49.12929311107505
10
-24.980111382953474
20
52.12929311107505
10
-10.234091115180565
20
52.129293111075086
42
-0.20646427481091528
10
-8.779444490412132
20
51.501883070622291
10
12.872866763240779
20
28.555145580314427
42
-0.1913822219921881
10
13.418220138472339
20
27.182555620767232
10
13.418220138472341
20
22.977189694021654
42
-0.4142135623730937
10
11.418220138472339
20
20.977189694021654
10
-82.280481560857339
20
20.977189694021668
42
-0.19836131985718122
10
-83.691693075650448
20
21.559980443234991
10
-87.189863126220999
20
25.043345975409814
42
-0.35605119382952716
10
-88.522294173962152
20
37.58152246779035
10
-78.857698901003886
20
51.282147203724435
42
-0.24377543108752892
10
-77.223401669450951
20
52.129293111075043
0
CIRCLE
5
104
100
AcDbEntity
8
0
100
AcDbCircle
10
-80.13380555225541
20
32.129392229343154
30
0
40
6.0000000000000142
0
LWPOLYLINE
5
105
100
AcDbEntity
8
0
100
AcDbPolyline
90
4
70
1
43
0.0
10
3.8548556616565799
20
25.935117151388916
10
3.8548556616565799
20
22.977189694021661
10
10.418220138472323
20
22.977189694021661
10
10.418220138472321
20
25.935117151388916
0
LWPOLYLINE
5
106
100
AcDbEntity
8
0
100
AcDbPolyline
90
4
70
1
43
0.0
10
-2.1727130463973254
20
28.519905451519683
10
0.46012071325991055
20
29.958024498750873
10
-2.567503379574342
20
35.500841651831934
10
-5.2003371392315776
20
34.062722604600744
0
LWPOLYLINE
5
107
100
AcDbEntity
8
0
100
AcDbPolyline
90
4
70
1
43
0.0
10
-8.2279612320658231
20
39.605539757681797
10
-5.5951274724085884
20
41.043658804912994
10
-8.6227515652428401
20
46.586475957994047
10
-11.255585324900075
20
45.148356910762857
0
LWPOLYLINE
5
108
100
AcDbEntity
8
0
100
AcDbPolyline
90
20
70
1
43
0.0
10
-82.280481560857339
20
20.977189694021661
42
-0.19836131985718042
10
-83.691693075650448
20
21.559980443234981
10
-87.189863126220999
20
25.043345975409814
42
-0.35605119382952716
10
-88.522294173962152
20
37.58152246779035
10
-78.857698901003886
20
51.282147203724442
42
-0.24377543108752819
10
-77.223401669450951
20
52.129293111075043
10
-64.940111382953475
20
52.12929311107505
10
-64.940111382953475
20
49.12929311107505
10
-51.620111382953475
20
49.12929311107505
10
-51.620111382953475
20
52.12929311107505
10
-38.300111382953475
20
52.12929311107505
10
-38.300111382953475
20
49.12929311107505
10
-24.980111382953474
20
49.12929311107505
10
-24.980111382953474
20
52.12929311107505
10
-10.234091115180565
20
52.129293111075086
42
-0.20646427481091528
10
-8.7794444904121285
20
51.501883070622291
10
12.872866763240777
20
28.555145580314431
42
-0.19138222199218846
10
13.418220138472339
20
27.182555620767232
10
13.418220138472341
20
22.977189694021654
42
-0.4142135623730937
10
11.418220138472339
20
20.977189694021654
0
CIRCLE
5
109
100
AcDbEntity
8
0
100
AcDbCircle
10
-80.13380555225541
20
32.129392229343154
30
0
40
6.0000000000000142
0
ENDSEC
0
SECTION
2
OBJECTS
0
DICTIONARY
5
C
100
AcDbDictionary
3
ACAD_GROUP
350
D
3
ACAD_MLINESTYLE
350
17
0
DICTIONARY
5
D
100
AcDbDictionary
0
DICTIONARY
5
1A
330
C
100
AcDbDictionary
0
DICTIONARY
5
17
100
AcDbDictionary
0
ENDSEC
0
EOF
