0
SECTION
2
HEADER
9
$INSUNITS
70
4
9
$ACADVER
1
AC1014
9
$HANDSEED
5
FFFF
0
ENDSEC
0
SECTION
2
TABLES
0
TABLE
2
VPORT
5
8
100
AcDbSymbolTable
0
ENDTAB
0
TABLE
2
LTYPE
5
5
100
AcDbSymbolTable
0
LTYPE
5
14
100
AcDbSymbolTableRecord
100
AcDbLinetypeTableRecord
2
BYBLOCK
70
0
0
LTYPE
5
15
100
AcDbSymbolTableRecord
100
AcDbLinetypeTableRecord
2
BYLAYER
70
0
0
ENDTAB
0
TABLE
2
LAYER
5
2
100
AcDbSymbolTable
70
2
0
LAYER
5
50
100
AcDbSymbolTableRecord
100
AcDbLayerTableRecord
2
0
70
0
6
CONTINUOUS
0
ENDTAB
0
TABLE
2
STYLE
5
3
100
AcDbSymbolTable
70
1
0
STYLE
5
11
100
AcDbSymbolTableRecord
100
AcDbTextStyleTableRecord
2
STANDARD
70
0
0
ENDTAB
0
TABLE
2
VIEW
5
6
100
AcDbSymbolTable
70
0
0
ENDTAB
0
TABLE
2
UCS
5
7
100
AcDbSymbolTable
70
0
0
ENDTAB
0
TABLE
2
APPID
5
9
100
AcDbSymbolTable
70
2
0
APPID
5
12
100
AcDbSymbolTableRecord
100
AcDbRegAppTableRecord
2
ACAD
70
0
0
ENDTAB
0
TABLE
2
DIMSTYLE
5
A
100
AcDbSymbolTable
70
1
0
ENDTAB
0
TABLE
2
BLOCK_RECORD
5
1
100
AcDbSymbolTable
70
1
0
BLOCK_RECORD
5
1F
100
AcDbSymbolTableRecord
100
AcDbBlockTableRecord
2
*MODEL_SPACE
0
BLOCK_RECORD
5
1B
100
AcDbSymbolTableRecord
100
AcDbBlockTableRecord
2
*PAPER_SPACE
0
ENDTAB
0
ENDSEC
0
SECTION
2
BLOCKS
0
BLOCK
5
20
100
AcDbEntity
100
AcDbBlockBegin
2
*MODEL_SPACE
0
ENDBLK
5
21
100
AcDbEntity
100
AcDbBlockEnd
0
BLOCK
5
1C
100
AcDbEntity
100
AcDbBlockBegin
2
*PAPER_SPACE
0
ENDBLK
5
1D
100
AcDbEntity
100
AcDbBlockEnd
0
ENDSEC
0
SECTION
2
ENTITIES
0
LWPOLYLINE
5
100
100
AcDbEntity
8
0
100
AcDbPolyline
90
96
70
1
43
0.0
10
341
20
7.9999999999999529
42
-0.4142135623730771
10
342
20
7
10
342.00000000000011
20
3.0000000000000004
42
-0.4142135623730771
10
341
20
2.0000000000000004
10
325.00000000000006
20
2
10
325
20
1.0000000000000004
42
-0.41421356237302515
10
324.00000000000006
20
0
10
306
20
2.1926904736346842e-14
42
-0.41421356237310536
10
305
20
1.0000000000000002
10
305
20
2
10
233
20
2
10
233
20
1.0000000000000004
42
-0.41421356237307416
10
232
20
0
10
214
20
2.1926904736346842e-14
42
-0.41421356237310536
10
212.99999999999997
20
1.0000000000000002
10
212.99999999999997
20
2
10
141
20
2
10
141
20
1.0000000000000004
42
-0.41421356237309415
10
140.00000000000003
20
1.3877787807814457e-16
10
122.00000000000001
20
6.6613381477509392e-15
42
-0.4142135623730942
10
121.00000000000001
20
1.0000000000000002
10
121.00000000000001
20
2
10
49.000000000000028
20
2
10
49.000000000000028
20
1.0000000000000004
42
-0.41421356237309548
10
48.000000000000036
20
0
10
30.000000000000007
20
2.2204460492503131e-15
42
-0.4142135623730942
10
29.000000000000007
20
1.0000000000000002
10
29.000000000000007
20
2
10
13.000000000000007
20
1.9999999999999951
42
-0.41421356237309509
10
12.000000000000002
20
3.0000000000000004
10
12.000000000000007
20
7
42
-0.41421356237309509
10
13.000000000000007
20
8
10
14.000000000000004
20
7.9999999999999938
42
-0.41421356237309437
10
15
20
7
10
15.000000000000002
20
5
10
17.000000000000004
20
5
10
17.000000000000004
20
7
42
-0.41421356237309437
10
18.000000000000007
20
8
10
60
20
7.9999999999999973
42
-0.41421356237309537
10
61
20
7
10
61
20
5
10
63
20
5
10
63
20
7
42
-0.41421356237309537
10
63.999999999999993
20
8
10
74.999999999999986
20
8
10
74.999999999999986
20
9.0000000000000018
42
-0.4142135623730957
10
75.999999999999986
20
10
10
95
20
10
10
95
20
7.0000000000000009
10
107
20
7
10
107
20
5
10
109
20
5
10
109
20
7
42
-0.4142135623730967
10
110
20
8
10
152
20
7.9999999999999911
42
-0.41421356237310936
10
153
20
7
10
153
20
5
10
155
20
5
10
155
20
7
42
-0.41421356237310192
10
155.99999999999997
20
8
10
166.99999735100613
20
8
10
166.99999735100607
20
9.0000000000000018
42
-0.41421356237310542
10
167.99999735100613
20
10
10
185.9999973510061
20
9.9999999999999787
42
-0.41421356237310508
10
186.99999735100613
20
9.0000000000000018
10
186.99999735100613
20
8
10
197.99999999999997
20
7.9999999999999787
42
-0.41421356237310542
10
199
20
7
10
199
20
5
10
200.99999999999997
20
5
10
200.99999999999997
20
7
42
-0.41421356237307422
10
202
20
8
10
244
20
7.9999999999999787
42
-0.41421356237310542
10
245
20
7
10
245
20
5
10
247
20
5
10
247
20
7
42
-0.41421356237307422
10
248
20
8
10
258.99767379454875
20
8
10
258.99767379454869
20
9.0000000000000018
42
-0.41421356237310542
10
259.99767379454875
20
10
10
277.99767379454869
20
9.9999999999999787
42
-0.41421356237310508
10
278.99767379454875
20
9.0000000000000018
10
278.99767379454875
20
8
10
289.99999999999994
20
8.0000000000000142
42
-0.41421356237307422
10
291
20
7
10
291
20
5
10
293
20
5
10
293
20
7
42
-0.41421356237307422
10
294
20
8
10
335.99999999999994
20
7.9999999999999893
42
-0.41421356237304624
10
336.99999999999994
20
7
10
336.99999999999994
20
5
10
338.99999999999989
20
5
10
338.99999999999983
20
7
42
-0.41421356237307744
10
339.99999999999994
20
8
0
ENDSEC
0
SECTION
2
OBJECTS
0
DICTIONARY
5
C
100
AcDbDictionary
3
ACAD_GROUP
350
D
3
ACAD_MLINESTYLE
350
17
0
DICTIONARY
5
D
100
AcDbDictionary
0
DICTIONARY
5
1A
330
C
100
AcDbDictionary
0
DICTIONARY
5
17
100
AcDbDictionary
0
ENDSEC
0
EOF
