0
SECTION
2
HEADER
9
$INSUNITS
70
4
9
$ACADVER
1
AC1014
9
$HANDSEED
5
FFFF
0
ENDSEC
0
SECTION
2
TABLES
0
TABLE
2
VPORT
5
8
100
AcDbSymbolTable
0
ENDTAB
0
TABLE
2
LTYPE
5
5
100
AcDbSymbolTable
0
LTYPE
5
14
100
AcDbSymbolTableRecord
100
AcDbLinetypeTableRecord
2
BYBLOCK
70
0
0
LTYPE
5
15
100
AcDbSymbolTableRecord
100
AcDbLinetypeTableRecord
2
BYLAYER
70
0
0
ENDTAB
0
TABLE
2
LAYER
5
2
100
AcDbSymbolTable
70
2
0
LAYER
5
50
100
AcDbSymbolTableRecord
100
AcDbLayerTableRecord
2
0
70
0
6
CONTINUOUS
0
ENDTAB
0
TABLE
2
STYLE
5
3
100
AcDbSymbolTable
70
1
0
STYLE
5
11
100
AcDbSymbolTableRecord
100
AcDbTextStyleTableRecord
2
STANDARD
70
0
0
ENDTAB
0
TABLE
2
VIEW
5
6
100
AcDbSymbolTable
70
0
0
ENDTAB
0
TABLE
2
UCS
5
7
100
AcDbSymbolTable
70
0
0
ENDTAB
0
TABLE
2
APPID
5
9
100
AcDbSymbolTable
70
2
0
APPID
5
12
100
AcDbSymbolTableRecord
100
AcDbRegAppTableRecord
2
ACAD
70
0
0
ENDTAB
0
TABLE
2
DIMSTYLE
5
A
100
AcDbSymbolTable
70
1
0
ENDTAB
0
TABLE
2
BLOCK_RECORD
5
1
100
AcDbSymbolTable
70
1
0
BLOCK_RECORD
5
1F
100
AcDbSymbolTableRecord
100
AcDbBlockTableRecord
2
*MODEL_SPACE
0
BLOCK_RECORD
5
1B
100
AcDbSymbolTableRecord
100
AcDbBlockTableRecord
2
*PAPER_SPACE
0
ENDTAB
0
ENDSEC
0
SECTION
2
BLOCKS
0
BLOCK
5
20
100
AcDbEntity
100
AcDbBlockBegin
2
*MODEL_SPACE
0
ENDBLK
5
21
100
AcDbEntity
100
AcDbBlockEnd
0
BLOCK
5
1C
100
AcDbEntity
100
AcDbBlockBegin
2
*PAPER_SPACE
0
ENDBLK
5
1D
100
AcDbEntity
100
AcDbBlockEnd
0
ENDSEC
0
SECTION
2
ENTITIES
0
LWPOLYLINE
5
100
100
AcDbEntity
8
0
100
AcDbPolyline
90
74
70
1
43
0.0
10
250
20
7.9999999999999769
42
-0.41421356237310508
10
251
20
7
10
251.00000000000006
20
3.0000000000000004
42
-0.41421356237310542
10
250
20
2
10
249.00000000000006
20
2.0000000000000218
42
-0.41421356237310542
10
248.00000000000006
20
3.0000000000000004
10
248.00000000000006
20
5
10
246.00000000000006
20
5
10
246.00000000000006
20
3.0000000000000004
42
-0.41421356237307422
10
245.00000000000003
20
2
10
233.00000000000006
20
2
10
233.00000000000009
20
1.0000000000000004
42
-0.41421356237310536
10
232.00000000000003
20
0
10
214.00000000000006
20
2.1926904736346842e-14
42
-0.41421356237310536
10
213.00000000000006
20
1.0000000000000002
10
213.00000000000006
20
2
10
201.00000000000006
20
1.9999999999999862
42
-0.41421356237307422
10
200.00000000000003
20
3.0000000000000004
10
200.00000000000003
20
5
10
198.00000000000006
20
5
10
198.00000000000009
20
3.0000000000000004
42
-0.41421356237310542
10
197.00000000000003
20
2
10
153.00000000000003
20
2.0000000000000071
42
-0.41421356237309409
10
152.00000000000003
20
3.0000000000000004
10
152.00000000000003
20
5
10
150.00000000000003
20
5
10
150.00000000000003
20
3.0000000000000004
42
-0.41421356237309409
10
149.00000000000003
20
2
10
137.00000000000003
20
2
10
137.00000000000003
20
1.0000000000000004
42
-0.41421356237309415
10
136.00000000000003
20
0
10
118.00000000000003
20
6.6613381477509392e-15
42
-0.4142135623730942
10
117.00000000000003
20
1.0000000000000002
10
117.00000000000003
20
2
10
105.00000000000001
20
2.0000000000000071
42
-0.41421356237309409
10
104.00000000000003
20
3.0000000000000004
10
104.00000000000003
20
5
10
102.00000000000003
20
5
10
102.00000000000003
20
3.0000000000000004
42
-0.41421356237309409
10
101.00000000000003
20
2
10
57.000000000000014
20
2.0000000000000027
42
-0.41421356237309537
10
56.000000000000014
20
3.0000000000000004
10
56.000000000000014
20
5
10
54.000000000000014
20
5
10
54.000000000000014
20
3.0000000000000004
42
-0.41421356237309537
10
53.000000000000014
20
2
10
41.000000000000007
20
2
10
41.000000000000007
20
1.0000000000000004
42
-0.41421356237309548
10
40.000000000000007
20
0
10
22.000000000000007
20
-2.7755575615628914e-16
42
-0.41421356237309231
10
21.000000000000007
20
1.0000000000000002
10
21.000000000000007
20
2
10
9.0000000000000036
20
2.000000000000004
42
-0.41421356237309437
10
8.0000000000000071
20
3.0000000000000004
10
8.0000000000000071
20
5
10
6.0000000000000071
20
5
10
6.0000000000000089
20
3.0000000000000004
42
-0.41421356237309453
10
5.0000000000000089
20
2
10
4.0000000000000036
20
1.9999999999999973
42
-0.41421356237309537
10
3.0000000000000004
20
3.0000000000000004
10
3.0000000000000036
20
7
42
-0.41421356237309598
10
4.0000000000000036
20
8
10
69.000076486069702
20
8
10
69.000076486069702
20
9.0000000000000018
42
-0.4142135623730957
10
70.000076486069688
20
10
10
88.000076486069418
20
9.9999999999999947
42
-0.41421356237309409
10
89.000076486069418
20
9.0000000000000018
10
89.000076486069418
20
8
10
165.00000000000003
20
8
10
165.00000000000003
20
9.0000000000000018
42
-0.41421356237307422
10
166.00000000000006
20
10
10
184.00000000000003
20
10.000000000000014
42
-0.41421356237307388
10
185.00000000000003
20
9.0000000000000018
10
185.00000000000003
20
8
0
ENDSEC
0
SECTION
2
OBJECTS
0
DICTIONARY
5
C
100
AcDbDictionary
3
ACAD_GROUP
350
D
3
ACAD_MLINESTYLE
350
17
0
DICTIONARY
5
D
100
AcDbDictionary
0
DICTIONARY
5
1A
330
C
100
AcDbDictionary
0
DICTIONARY
5
17
100
AcDbDictionary
0
ENDSEC
0
EOF
