0
SECTION
2
HEADER
9
$INSUNITS
70
4
9
$ACADVER
1
AC1014
9
$HANDSEED
5
FFFF
0
ENDSEC
0
SECTION
2
TABLES
0
TABLE
2
VPORT
5
8
100
AcDbSymbolTable
0
ENDTAB
0
TABLE
2
LTYPE
5
5
100
AcDbSymbolTable
0
LTYPE
5
14
100
AcDbSymbolTableRecord
100
AcDbLinetypeTableRecord
2
BYBLOCK
70
0
0
LTYPE
5
15
100
AcDbSymbolTableRecord
100
AcDbLinetypeTableRecord
2
BYLAYER
70
0
0
ENDTAB
0
TABLE
2
LAYER
5
2
100
AcDbSymbolTable
70
2
0
LAYER
5
50
100
AcDbSymbolTableRecord
100
AcDbLayerTableRecord
2
0
70
0
6
CONTINUOUS
0
ENDTAB
0
TABLE
2
STYLE
5
3
100
AcDbSymbolTable
70
1
0
STYLE
5
11
100
AcDbSymbolTableRecord
100
AcDbTextStyleTableRecord
2
STANDARD
70
0
0
ENDTAB
0
TABLE
2
VIEW
5
6
100
AcDbSymbolTable
70
0
0
ENDTAB
0
TABLE
2
UCS
5
7
100
AcDbSymbolTable
70
0
0
ENDTAB
0
TABLE
2
APPID
5
9
100
AcDbSymbolTable
70
2
0
APPID
5
12
100
AcDbSymbolTableRecord
100
AcDbRegAppTableRecord
2
ACAD
70
0
0
ENDTAB
0
TABLE
2
DIMSTYLE
5
A
100
AcDbSymbolTable
70
1
0
ENDTAB
0
TABLE
2
BLOCK_RECORD
5
1
100
AcDbSymbolTable
70
1
0
BLOCK_RECORD
5
1F
100
AcDbSymbolTableRecord
100
AcDbBlockTableRecord
2
*MODEL_SPACE
0
BLOCK_RECORD
5
1B
100
AcDbSymbolTableRecord
100
AcDbBlockTableRecord
2
*PAPER_SPACE
0
ENDTAB
0
ENDSEC
0
SECTION
2
BLOCKS
0
BLOCK
5
20
100
AcDbEntity
100
AcDbBlockBegin
2
*MODEL_SPACE
0
ENDBLK
5
21
100
AcDbEntity
100
AcDbBlockEnd
0
BLOCK
5
1C
100
AcDbEntity
100
AcDbBlockBegin
2
*PAPER_SPACE
0
ENDBLK
5
1D
100
AcDbEntity
100
AcDbBlockEnd
0
ENDSEC
0
SECTION
2
ENTITIES
0
LWPOLYLINE
5
100
100
AcDbEntity
8
0
100
AcDbPolyline
90
24
70
1
43
0.0
10
3.6082248300317588e-15
20
-75.343145750507645
42
-0.19891236737965798
10
-1.171572875253819
20
-78.171572875253844
10
-8.8284271247461987
20
-85.828427124746185
42
0.19891236737965762
10
-10.000000000000007
20
-88.656854249492369
10
-10
20
-165.34314575050763
42
0.19891236737965781
10
-8.8284271247461898
20
-168.17157287525384
10
-1.1715728752537806
20
-175.82842712474621
42
-0.1989123673796579
10
4.9303806576313238e-31
20
-178.65685424949243
10
4.4408920985006262e-15
20
-246
42
-0.41421356237309648
10
-8.0000000000000426
20
-254.00000000000003
10
-346
20
-254
42
-0.41421356237309509
10
-354
20
-246
10
-354.00000000000006
20
-178.65685424949243
42
-0.19891236737965798
10
-352.82842712474621
20
-175.82842712474621
10
-345.17157287525379
20
-168.17157287525384
42
0.19891236737965962
10
-344
20
-165.3431457505076
10
-344
20
-88.656854249492412
42
0.19891236737965798
10
-345.17157287525379
20
-85.828427124746227
10
-352.8284271247461
20
-78.17157287525383
42
-0.19891236737965418
10
-354
20
-75.343145750507603
10
-354
20
-8.0000000000000018
42
-0.41421356237309542
10
-346
20
0
10
-8
20
-6.6613381477509392e-15
42
-0.41421356237309509
10
0
20
-8.0000000000000071
0
LWPOLYLINE
5
101
100
AcDbEntity
8
0
100
AcDbPolyline
90
4
70
1
43
0.0
10
-121.00000000000001
20
-152.00000000000003
10
-121.00000000000001
20
-150.00000000000003
10
-141
20
-150.00000000000003
10
-141
20
-152.00000000000003
0
LWPOLYLINE
5
102
100
AcDbEntity
8
0
100
AcDbPolyline
90
4
70
1
43
0.0
10
-293
20
-41.000000000000007
10
-291
20
-41.000000000000007
10
-291
20
-21.000000000000007
10
-293
20
-21.000000000000007
0
LWPOLYLINE
5
103
100
AcDbEntity
8
0
100
AcDbPolyline
90
4
70
1
43
0.0
10
-153
20
-89.000076486069418
10
-153
20
-69.000076486069702
10
-155.04459407981344
20
-69.000076486069702
10
-155.04459407981344
20
-89.000076486069418
0
LWPOLYLINE
5
104
100
AcDbEntity
8
0
100
AcDbPolyline
90
4
70
1
43
0.0
10
-200.99999999999997
20
-41.000000000000007
10
-199
20
-41.000000000000007
10
-199
20
-21.000000000000007
10
-200.99999999999997
20
-21.000000000000007
0
LWPOLYLINE
5
105
100
AcDbEntity
8
0
100
AcDbPolyline
90
4
70
1
43
0.0
10
-63
20
-41.000000000000007
10
-61
20
-41.000000000000007
10
-61
20
-21.000000000000007
10
-63
20
-21.000000000000007
0
LWPOLYLINE
5
106
100
AcDbEntity
8
0
100
AcDbPolyline
90
4
70
1
43
0.0
10
-29.000000000000018
20
-54.000000000000014
10
-49.000000000000028
20
-54.000000000000014
10
-49.000000000000028
20
-56.000000000000007
10
-29.000000000000018
20
-56.000000000000007
0
LWPOLYLINE
5
107
100
AcDbEntity
8
0
100
AcDbPolyline
90
4
70
1
43
0.0
10
-279
20
-200.00000000000003
10
-259
20
-200.00000000000003
10
-259
20
-198.00000000000006
10
-279
20
-198.00000000000006
0
LWPOLYLINE
5
108
100
AcDbEntity
8
0
100
AcDbPolyline
90
4
70
1
43
0.0
10
-325.00000000000006
20
-8
10
-305
20
-8
10
-305
20
-6.0000000000000009
10
-325.00000000000006
20
-6.0000000000000009
0
LWPOLYLINE
5
109
100
AcDbEntity
8
0
100
AcDbPolyline
90
4
70
1
43
0.0
10
-29.000000000000018
20
-150.00000000000003
10
-49.000000000000028
20
-150.00000000000003
10
-49.000000000000028
20
-152.00000000000003
10
-29.000000000000018
20
-152.00000000000003
0
LWPOLYLINE
5
110
100
AcDbEntity
8
0
100
AcDbPolyline
90
4
70
1
43
0.0
10
-305
20
-54
10
-325.00000000000006
20
-54
10
-325.00000000000006
20
-56.000000000000007
10
-305
20
-56.000000000000007
0
LWPOLYLINE
5
111
100
AcDbEntity
8
0
100
AcDbPolyline
90
4
70
1
43
0.0
10
-17.044594079813461
20
-69.000076486069702
10
-17.044594079813461
20
-89.000076486069418
10
-15
20
-89.000076486069418
10
-15
20
-69.000076486069702
0
LWPOLYLINE
5
112
100
AcDbEntity
8
0
100
AcDbPolyline
90
4
70
1
43
0.0
10
-336.99999999999994
20
-233.00000000000006
10
-336.99999999999994
20
-213.00000000000006
10
-338.99999999999989
20
-213.00000000000006
10
-338.99999999999989
20
-233.00000000000006
0
LWPOLYLINE
5
113
100
AcDbEntity
8
0
100
AcDbPolyline
90
4
70
1
43
0.0
10
-279
20
-54
10
-279
20
-56.000000000000007
10
-258.99841941259666
20
-56.000000000000007
10
-259
20
-54
0
LWPOLYLINE
5
114
100
AcDbEntity
8
0
100
AcDbPolyline
90
4
70
1
43
0.0
10
-121.00000000000001
20
-200.00000000000003
10
-121.00000000000001
20
-198.00000000000006
10
-141
20
-198.00000000000006
10
-141
20
-200.00000000000003
0
LWPOLYLINE
5
115
100
AcDbEntity
8
0
100
AcDbPolyline
90
4
70
1
43
0.0
10
-108.99999999999999
20
-117.00000000000003
10
-108.99999999999999
20
-137.00000000000003
10
-107
20
-137.00000000000003
10
-107
20
-117.00000000000003
0
LWPOLYLINE
5
116
100
AcDbEntity
8
0
100
AcDbPolyline
90
4
70
1
43
0.0
10
-107
20
-233.00000000000006
10
-107
20
-213.00000000000006
10
-108.99999999999999
20
-213.00000000000006
10
-108.99999999999999
20
-233.00000000000006
0
LWPOLYLINE
5
117
100
AcDbEntity
8
0
100
AcDbPolyline
90
4
70
1
43
0.0
10
-186.99999735100613
20
-248.00000000000006
10
-166.99999735100613
20
-248.00000000000006
10
-166.99999735100613
20
-246.00000000000006
10
-186.99999735100613
20
-246.00000000000006
0
LWPOLYLINE
5
118
100
AcDbEntity
8
0
100
AcDbPolyline
90
4
70
1
43
0.0
10
-279
20
-104.00000000000003
10
-259
20
-104.00000000000003
10
-259
20
-102.00000000000001
10
-279
20
-102.00000000000001
0
LWPOLYLINE
5
119
100
AcDbEntity
8
0
100
AcDbPolyline
90
4
70
1
43
0.0
10
-233
20
-200.00000000000003
10
-212.99999999999997
20
-200.00000000000003
10
-212.99999999999997
20
-198.00000000000006
10
-233
20
-198.00000000000006
0
LWPOLYLINE
5
120
100
AcDbEntity
8
0
100
AcDbPolyline
90
4
70
1
43
0.0
10
-121.00000000000001
20
-248.00000000000006
10
-121.00000000000001
20
-246.00000000000006
10
-141
20
-246.00000000000006
10
-141
20
-248.00000000000006
0
LWPOLYLINE
5
121
100
AcDbEntity
8
0
100
AcDbPolyline
90
4
70
1
43
0.0
10
-247.00000000000003
20
-185.00000000000003
10
-245
20
-185.00000000000003
10
-245
20
-165.00000000000003
10
-247.00000000000003
20
-165.00000000000003
0
LWPOLYLINE
5
122
100
AcDbEntity
8
0
100
AcDbPolyline
90
4
70
1
43
0.0
10
-121.00000000000001
20
-56.000000000000007
10
-121.00000000000001
20
-54
10
-141
20
-54
10
-141
20
-56.000000000000007
0
LWPOLYLINE
5
123
100
AcDbEntity
8
0
100
AcDbPolyline
90
4
70
1
43
0.0
10
-336.99999999999994
20
-89.000076486069418
10
-336.99999999999994
20
-69.000076486069702
10
-339.04459407981341
20
-69.000076486069702
10
-339.04459407981341
20
-89.000076486069418
0
LWPOLYLINE
5
124
100
AcDbEntity
8
0
100
AcDbPolyline
90
4
70
1
43
0.0
10
-201
20
-185.00000000000003
10
-199
20
-185.00000000000003
10
-199
20
-165.00000000000003
10
-201
20
-165.00000000000003
0
LWPOLYLINE
5
125
100
AcDbEntity
8
0
100
AcDbPolyline
90
4
70
1
43
0.0
10
-74.999999999999986
20
-152.00000000000003
10
-74.999999999999986
20
-150.00000000000003
10
-95
20
-150.00000000000003
10
-95
20
-152.00000000000003
0
LWPOLYLINE
5
126
100
AcDbEntity
8
0
100
AcDbPolyline
90
4
70
1
43
0.0
10
-74.999999999999986
20
-56.000000000000007
10
-74.999999999999986
20
-54.000000000000014
10
-95
20
-54.000000000000014
10
-95
20
-56.000000000000007
0
LWPOLYLINE
5
127
100
AcDbEntity
8
0
100
AcDbPolyline
90
4
70
1
43
0.0
10
-291
20
-233.00000000000006
10
-291
20
-213.00000000000006
10
-293
20
-213.00000000000006
10
-293
20
-233.00000000000006
0
LWPOLYLINE
5
128
100
AcDbEntity
8
0
100
AcDbPolyline
90
4
70
1
43
0.0
10
-199
20
-233.00000000000006
10
-199
20
-213.00000000000006
10
-200.99999999999997
20
-213.00000000000006
10
-200.99999999999997
20
-233.00000000000006
0
LWPOLYLINE
5
129
100
AcDbEntity
8
0
100
AcDbPolyline
90
4
70
1
43
0.0
10
-63.000000000000028
20
-185.00000000000003
10
-61
20
-185.00000000000003
10
-61
20
-165.00000000000003
10
-63.000000000000028
20
-165.00000000000003
0
LWPOLYLINE
5
130
100
AcDbEntity
8
0
100
AcDbPolyline
90
4
70
1
43
0.0
10
-107
20
-89.000076486069418
10
-107
20
-69.000076486069702
10
-109.04459407981346
20
-69.000076486069702
10
-109.04459407981346
20
-89.000076486069418
0
LWPOLYLINE
5
131
100
AcDbEntity
8
0
100
AcDbPolyline
90
4
70
1
43
0.0
10
-17
20
-117.00000000000003
10
-17
20
-137.00000000000003
10
-15
20
-137.00000000000003
10
-15
20
-117.00000000000003
0
LWPOLYLINE
5
132
100
AcDbEntity
8
0
100
AcDbPolyline
90
4
70
1
43
0.0
10
-293
20
-185.00000000000003
10
-291
20
-185.00000000000003
10
-291
20
-165.00000000000003
10
-293
20
-165.00000000000003
0
LWPOLYLINE
5
133
100
AcDbEntity
8
0
100
AcDbPolyline
90
4
70
1
43
0.0
10
-233
20
-56.000000000000007
10
-212.99999999999997
20
-56.000000000000007
10
-212.99999999999997
20
-54
10
-233
20
-54
0
LWPOLYLINE
5
134
100
AcDbEntity
8
0
100
AcDbPolyline
90
4
70
1
43
0.0
10
-186.99999735100613
20
-8.0000000000000018
10
-166.99999735100613
20
-8.0000000000000018
10
-166.99999735100613
20
-6.0000000000000018
10
-186.99999735100613
20
-6.0000000000000018
0
LWPOLYLINE
5
135
100
AcDbEntity
8
0
100
AcDbPolyline
90
4
70
1
43
0.0
10
-233
20
-248.00000000000006
10
-212.99999999999997
20
-248.00000000000006
10
-212.99999999999997
20
-246.00000000000006
10
-233
20
-246.00000000000006
0
LWPOLYLINE
5
136
100
AcDbEntity
8
0
100
AcDbPolyline
90
4
70
1
43
0.0
10
-95
20
-8
10
-74.999999999999986
20
-8
10
-74.999999999999986
20
-6.0000000000000036
10
-95
20
-6.0000000000000036
0
LWPOLYLINE
5
137
100
AcDbEntity
8
0
100
AcDbPolyline
90
4
70
1
43
0.0
10
-293
20
-117.00000000000003
10
-293
20
-137.00000000000003
10
-291
20
-137.00000000000003
10
-291
20
-117.00000000000003
0
LWPOLYLINE
5
138
100
AcDbEntity
8
0
100
AcDbPolyline
90
4
70
1
43
0.0
10
-74.999999999999986
20
-248.00000000000006
10
-74.999999999999986
20
-246.00000000000006
10
-95
20
-246.00000000000006
10
-95
20
-248.00000000000006
0
LWPOLYLINE
5
139
100
AcDbEntity
8
0
100
AcDbPolyline
90
4
70
1
43
0.0
10
-17
20
-21.000000000000007
10
-17
20
-41.000000000000007
10
-15
20
-41.000000000000007
10
-15
20
-21.000000000000007
0
LWPOLYLINE
5
140
100
AcDbEntity
8
0
100
AcDbPolyline
90
4
70
1
43
0.0
10
-108.99999999999999
20
-41.000000000000007
10
-107
20
-41.000000000000007
10
-107
20
-21.000000000000007
10
-108.99999999999999
20
-21.000000000000007
0
LWPOLYLINE
5
141
100
AcDbEntity
8
0
100
AcDbPolyline
90
4
70
1
43
0.0
10
-247
20
-41.000000000000007
10
-245
20
-41.000000000000007
10
-245
20
-21.000000000000007
10
-247
20
-21.000000000000007
0
LWPOLYLINE
5
142
100
AcDbEntity
8
0
100
AcDbPolyline
90
4
70
1
43
0.0
10
-247
20
-117.00000000000003
10
-247
20
-137.00000000000003
10
-245
20
-137.00000000000003
10
-245
20
-117.00000000000003
0
LWPOLYLINE
5
143
100
AcDbEntity
8
0
100
AcDbPolyline
90
4
70
1
43
0.0
10
-29.000000000000018
20
-198.00000000000006
10
-49.000000000000028
20
-198.00000000000006
10
-49.000000000000028
20
-200.00000000000003
10
-29.000000000000018
20
-200.00000000000003
0
LWPOLYLINE
5
144
100
AcDbEntity
8
0
100
AcDbPolyline
90
4
70
1
43
0.0
10
-155
20
-41.000000000000007
10
-153
20
-41.000000000000007
10
-153
20
-21.000000000000007
10
-155
20
-21.000000000000007
0
LWPOLYLINE
5
145
100
AcDbEntity
8
0
100
AcDbPolyline
90
4
70
1
43
0.0
10
-305
20
-198.00000000000006
10
-325.00000000000006
20
-198.00000000000006
10
-325.00000000000006
20
-200.00000000000003
10
-305
20
-200.00000000000003
0
LWPOLYLINE
5
146
100
AcDbEntity
8
0
100
AcDbPolyline
90
4
70
1
43
0.0
10
-199
20
-89.000076486069418
10
-199
20
-69.000076486069702
10
-201.04459407981346
20
-69.000076486069702
10
-201.04459407981346
20
-89.000076486069418
0
LWPOLYLINE
5
147
100
AcDbEntity
8
0
100
AcDbPolyline
90
4
70
1
43
0.0
10
-17.000000000000032
20
-165.00000000000003
10
-17.000000000000032
20
-185.00000000000003
10
-15
20
-185.00000000000003
10
-15
20
-165.00000000000003
0
LWPOLYLINE
5
148
100
AcDbEntity
8
0
100
AcDbPolyline
90
4
70
1
43
0.0
10
-121.00000000000001
20
-104.00000000000003
10
-121.00000000000001
20
-102.00000000000001
10
-141
20
-102.00000000000001
10
-141
20
-104.00000000000003
0
LWPOLYLINE
5
149
100
AcDbEntity
8
0
100
AcDbPolyline
90
4
70
1
43
0.0
10
-245
20
-89.000076486069418
10
-245
20
-69.000076486069702
10
-247.04459407981346
20
-69.000076486069702
10
-247.04459407981346
20
-89.000076486069418
0
LWPOLYLINE
5
150
100
AcDbEntity
8
0
100
AcDbPolyline
90
4
70
1
43
0.0
10
-186.99999735100613
20
-56.000000000000007
10
-166.99999735100613
20
-56.000000000000007
10
-166.99999735100613
20
-54.000000000000014
10
-186.99999735100613
20
-54.000000000000014
0
LWPOLYLINE
5
151
100
AcDbEntity
8
0
100
AcDbPolyline
90
4
70
1
43
0.0
10
-109.00000000000004
20
-185.00000000000003
10
-107
20
-185.00000000000003
10
-107
20
-165.00000000000003
10
-109.00000000000004
20
-165.00000000000003
0
LWPOLYLINE
5
152
100
AcDbEntity
8
0
100
AcDbPolyline
90
4
70
1
43
0.0
10
-29.000000000000018
20
-246.00000000000006
10
-49.000000000000028
20
-246.00000000000006
10
-49.000000000000028
20
-248.00000000000006
10
-29.000000000000018
20
-248.00000000000006
0
LWPOLYLINE
5
153
100
AcDbEntity
8
0
100
AcDbPolyline
90
4
70
1
43
0.0
10
-279
20
-8.0000000000000018
10
-259
20
-8.0000000000000018
10
-259
20
-6.0000000000000009
10
-279
20
-6.0000000000000009
0
LWPOLYLINE
5
154
100
AcDbEntity
8
0
100
AcDbPolyline
90
4
70
1
43
0.0
10
-186.99999735100613
20
-104.00000000000003
10
-166.99999735100613
20
-104.00000000000003
10
-166.99999735100613
20
-102.00000000000001
10
-186.99999735100613
20
-102.00000000000001
0
LWPOLYLINE
5
155
100
AcDbEntity
8
0
100
AcDbPolyline
90
4
70
1
43
0.0
10
-153
20
-233.00000000000006
10
-153
20
-213.00000000000006
10
-155
20
-213.00000000000006
10
-155
20
-233.00000000000006
0
LWPOLYLINE
5
156
100
AcDbEntity
8
0
100
AcDbPolyline
90
4
70
1
43
0.0
10
-305
20
-102.00000000000001
10
-325.00000000000006
20
-102.00000000000001
10
-325.00000000000006
20
-104.00000000000003
10
-305
20
-104.00000000000003
0
LWPOLYLINE
5
157
100
AcDbEntity
8
0
100
AcDbPolyline
90
4
70
1
43
0.0
10
-245
20
-233.00000000000006
10
-245
20
-213.00000000000006
10
-247
20
-213.00000000000006
10
-247
20
-233.00000000000006
0
LWPOLYLINE
5
158
100
AcDbEntity
8
0
100
AcDbPolyline
90
4
70
1
43
0.0
10
-233
20
-152.00000000000003
10
-212.99999999999997
20
-152.00000000000003
10
-212.99999999999997
20
-150.00000000000003
10
-233
20
-150.00000000000003
0
LWPOLYLINE
5
159
100
AcDbEntity
8
0
100
AcDbPolyline
90
4
70
1
43
0.0
10
-29.000000000000018
20
-102.00000000000001
10
-49.000000000000028
20
-102.00000000000001
10
-49.000000000000028
20
-104.00000000000003
10
-29.000000000000018
20
-104.00000000000003
0
LWPOLYLINE
5
160
100
AcDbEntity
8
0
100
AcDbPolyline
90
4
70
1
43
0.0
10
-74.999999999999986
20
-200.00000000000003
10
-74.999999999999986
20
-198.00000000000006
10
-95
20
-198.00000000000006
10
-95
20
-200.00000000000003
0
LWPOLYLINE
5
161
100
AcDbEntity
8
0
100
AcDbPolyline
90
4
70
1
43
0.0
10
-338.99999999999989
20
-41.000000000000007
10
-336.99999999999994
20
-41.000000000000007
10
-336.99999999999994
20
-21.000000000000007
10
-338.99999999999989
20
-21.000000000000007
0
LWPOLYLINE
5
162
100
AcDbEntity
8
0
100
AcDbPolyline
90
4
70
1
43
0.0
10
-141
20
-8
10
-121.00000000000001
20
-8
10
-121.00000000000001
20
-6.0000000000000009
10
-141
20
-6.0000000000000009
0
LWPOLYLINE
5
163
100
AcDbEntity
8
0
100
AcDbPolyline
90
4
70
1
43
0.0
10
-186.99999735100613
20
-200.00000000000003
10
-166.99999735100613
20
-200.00000000000003
10
-166.99999735100613
20
-198.00000000000006
10
-186.99999735100613
20
-198.00000000000006
0
LWPOLYLINE
5
164
100
AcDbEntity
8
0
100
AcDbPolyline
90
4
70
1
43
0.0
10
-61
20
-233.00000000000006
10
-61
20
-213.00000000000006
10
-63
20
-213.00000000000006
10
-63
20
-233.00000000000006
0
LWPOLYLINE
5
165
100
AcDbEntity
8
0
100
AcDbPolyline
90
4
70
1
43
0.0
10
-63
20
-117.00000000000003
10
-63
20
-137.00000000000003
10
-61
20
-137.00000000000003
10
-61
20
-117.00000000000003
0
LWPOLYLINE
5
166
100
AcDbEntity
8
0
100
AcDbPolyline
90
4
70
1
43
0.0
10
-155
20
-117.00000000000003
10
-155
20
-137.00000000000003
10
-153
20
-137.00000000000003
10
-153
20
-117.00000000000003
0
LWPOLYLINE
5
167
100
AcDbEntity
8
0
100
AcDbPolyline
90
4
70
1
43
0.0
10
-17
20
-213.00000000000006
10
-17
20
-233.00000000000006
10
-15
20
-233.00000000000006
10
-15
20
-213.00000000000006
0
LWPOLYLINE
5
168
100
AcDbEntity
8
0
100
AcDbPolyline
90
4
70
1
43
0.0
10
-233
20
-8
10
-212.99999999999997
20
-8
10
-212.99999999999997
20
-6.0000000000000009
10
-233
20
-6.0000000000000009
0
LWPOLYLINE
5
169
100
AcDbEntity
8
0
100
AcDbPolyline
90
4
70
1
43
0.0
10
-338.99999999999989
20
-117.00000000000003
10
-338.99999999999989
20
-137.00000000000003
10
-336.99999999999994
20
-137.00000000000003
10
-336.99999999999994
20
-117.00000000000003
0
LWPOLYLINE
5
170
100
AcDbEntity
8
0
100
AcDbPolyline
90
4
70
1
43
0.0
10
-74.999999999999986
20
-104.00000000000003
10
-74.999999999999986
20
-102.00000000000001
10
-95
20
-102.00000000000001
10
-95
20
-104.00000000000003
0
LWPOLYLINE
5
171
100
AcDbEntity
8
0
100
AcDbPolyline
90
4
70
1
43
0.0
10
-305
20
-246.00000000000006
10
-325.00000000000006
20
-246.00000000000006
10
-325.00000000000006
20
-248.00000000000006
10
-305
20
-248.00000000000006
0
LWPOLYLINE
5
172
100
AcDbEntity
8
0
100
AcDbPolyline
90
4
70
1
43
0.0
10
-339
20
-185.00000000000003
10
-336.99999999999994
20
-185.00000000000003
10
-336.99999999999994
20
-165.00000000000003
10
-339
20
-165.00000000000003
0
LWPOLYLINE
5
173
100
AcDbEntity
8
0
100
AcDbPolyline
90
4
70
1
43
0.0
10
-279
20
-152.00000000000003
10
-259
20
-152.00000000000003
10
-259
20
-150.00000000000003
10
-279
20
-150.00000000000003
0
LWPOLYLINE
5
174
100
AcDbEntity
8
0
100
AcDbPolyline
90
4
70
1
43
0.0
10
-61
20
-89.000076486069418
10
-61
20
-69.000076486069702
10
-63.04459407981345
20
-69.000076486069702
10
-63.04459407981345
20
-89.000076486069418
0
LWPOLYLINE
5
175
100
AcDbEntity
8
0
100
AcDbPolyline
90
4
70
1
43
0.0
10
-200.99999999999997
20
-117.00000000000003
10
-200.99999999999997
20
-137.00000000000003
10
-199
20
-137.00000000000003
10
-199
20
-117.00000000000003
0
LWPOLYLINE
5
176
100
AcDbEntity
8
0
100
AcDbPolyline
90
4
70
1
43
0.0
10
-279
20
-248.00000000000006
10
-259
20
-248.00000000000006
10
-259
20
-246.00000000000006
10
-279
20
-246.00000000000006
0
LWPOLYLINE
5
177
100
AcDbEntity
8
0
100
AcDbPolyline
90
4
70
1
43
0.0
10
-233
20
-104.00000000000003
10
-212.99999999999997
20
-104.00000000000003
10
-212.99999999999997
20
-102.00000000000001
10
-233
20
-102.00000000000001
0
LWPOLYLINE
5
178
100
AcDbEntity
8
0
100
AcDbPolyline
90
4
70
1
43
0.0
10
-49.000000000000028
20
-8
10
-29.000000000000018
20
-8
10
-29.000000000000018
20
-6.0000000000000018
10
-49.000000000000028
20
-6.0000000000000018
0
LWPOLYLINE
5
179
100
AcDbEntity
8
0
100
AcDbPolyline
90
4
70
1
43
0.0
10
-155.00000000000003
20
-185.00000000000003
10
-153
20
-185.00000000000003
10
-153
20
-165.00000000000003
10
-155.00000000000003
20
-165.00000000000003
0
LWPOLYLINE
5
180
100
AcDbEntity
8
0
100
AcDbPolyline
90
4
70
1
43
0.0
10
-291
20
-89.000076486069418
10
-291
20
-69.000076486069702
10
-293.04459407981346
20
-69.000076486069702
10
-293.04459407981346
20
-89.000076486069418
0
LWPOLYLINE
5
181
100
AcDbEntity
8
0
100
AcDbPolyline
90
4
70
1
43
0.0
10
-305
20
-150.00000000000003
10
-325.00000000000006
20
-150.00000000000003
10
-325.00000000000006
20
-152.00000000000003
10
-305
20
-152.00000000000003
0
LWPOLYLINE
5
182
100
AcDbEntity
8
0
100
AcDbPolyline
90
4
70
1
43
0.0
10
-186.99999735100613
20
-152.00000000000003
10
-166.99999735100613
20
-152.00000000000003
10
-166.99999735100613
20
-150.00000000000003
10
-186.99999735100613
20
-150.00000000000003
0
ENDSEC
0
SECTION
2
OBJECTS
0
DICTIONARY
5
C
100
AcDbDictionary
3
ACAD_GROUP
350
D
3
ACAD_MLINESTYLE
350
17
0
DICTIONARY
5
D
100
AcDbDictionary
0
DICTIONARY
5
1A
330
C
100
AcDbDictionary
0
DICTIONARY
5
17
100
AcDbDictionary
0
ENDSEC
0
EOF
