<?xml version="1.0" encoding="UTF-8" standalone="no"?>
<!DOCTYPE svg PUBLIC "-//W3C//DTD SVG 1.1//EN" "http://www.w3.org/Graphics/SVG/1.1/DTD/svg11.dtd">
<svg width="100%" height="100%" viewBox="0 0 440 462" version="1.1" xmlns="http://www.w3.org/2000/svg" xmlns:xlink="http://www.w3.org/1999/xlink" xml:space="preserve" style="fill-rule:evenodd;clip-rule:evenodd;stroke-linecap:round;stroke-linejoin:round;stroke-miterlimit:1.5;">
    <g id="Ebene1" transform="matrix(1,0,0,1,18,20)">
        <g transform="matrix(1,0,0,1,-18,-20)">
            <path d="M18.993,28.938L18.904,419.575L40.665,441.308L415.946,441.778L421.64,436.478L421.515,30.015L415.571,23.653L24.616,23.82L18.993,28.938Z" style="fill:none;stroke:black;stroke-width:1px;"/>
        </g>
        <g transform="matrix(-1,-1.22465e-16,1.22465e-16,-1,404.521,425.297)">
            <path d="M19.893,30.24L28.274,51.557L24.3,51.552L24.315,62.23L14.533,62.124L14.644,51.572L11.226,51.458L19.893,30.24Z" style="fill:none;stroke:black;stroke-width:1px;"/>
        </g>
        <g transform="matrix(-1,-1.22465e-16,1.22465e-16,-1,404.521,425.297)">
            <rect x="374.69" y="372.393" width="19.636" height="15.514" style="fill:white;stroke:black;stroke-width:1px;"/>
        </g>
        <g transform="matrix(-1,-1.22465e-16,1.22465e-16,-1,768.371,425.297)">
            <rect x="374.69" y="372.393" width="19.636" height="15.514" style="fill:white;stroke:black;stroke-width:1px;"/>
        </g>
        <g transform="matrix(-1.00816,-1.23464e-16,1.22465e-16,-1,404.854,425.297)">
            <path d="M315.244,3.659L40.762,3.659C40.762,3.659 40.762,105.445 40.762,135.073C40.762,139.491 44.315,143.073 48.697,143.073C88.641,143.073 267.365,143.073 307.309,143.073C311.691,143.073 315.244,139.491 315.244,135.073C315.244,105.445 315.244,3.659 315.244,3.659Z" style="fill:white;stroke:black;stroke-width:1px;"/>
        </g>
        <g transform="matrix(-1,-1.22465e-16,1.22465e-16,-1,404.521,425.297)">
            <path d="M366.523,188.681C366.523,182.054 361.151,176.681 354.523,176.681C303.301,176.681 103.256,176.681 52.033,176.681C45.406,176.681 40.033,182.054 40.033,188.681C40.033,237.887 40.033,421.615 40.033,421.615L366.523,421.615C366.523,421.615 366.523,237.887 366.523,188.681Z" style="fill:white;stroke:black;stroke-width:1px;"/>
        </g>
        <g transform="matrix(-1.0181,-1.24682e-16,1.25487e-16,-1.02468,406.353,425.392)">
            <path d="M314.572,3.838L101.166,3.838L101.166,136.23C101.166,138.179 102.756,139.759 104.718,139.759C129.076,139.759 271.524,139.759 306.714,139.759C308.798,139.759 310.797,138.936 312.271,137.472C313.744,136.008 314.572,134.022 314.572,131.952C314.572,103.055 314.572,3.838 314.572,3.838Z" style="fill:white;stroke:black;stroke-width:0.98px;"/>
        </g>
        <g transform="matrix(-1,-1.22465e-16,1.19863e-16,-0.978753,404.521,424.772)">
            <path d="M279.109,30.279C279.109,27.206 276.668,24.712 273.661,24.712L232.475,24.712C229.467,24.712 227.026,27.206 227.026,30.279L227.026,127.583C227.026,130.656 229.467,133.15 232.475,133.15L273.661,133.15C276.668,133.15 279.109,130.656 279.109,127.583L279.109,30.279Z" style="fill:white;stroke:black;stroke-width:1.01px;"/>
        </g>
        <g transform="matrix(1,0,0,1,-47.7736,-12.8024)">
            <path d="M107.869,80.608L115.989,52.888C116.122,52.461 116.362,52.114 116.709,51.848C117.055,51.581 117.455,51.448 117.909,51.448C118.362,51.448 118.775,51.581 119.149,51.848C119.522,52.114 119.762,52.461 119.869,52.888L127.949,80.608C127.949,81.168 127.742,81.648 127.329,82.048C126.915,82.448 126.429,82.648 125.869,82.648C125.415,82.648 125.015,82.514 124.669,82.248C124.322,81.981 124.082,81.634 123.949,81.208L122.389,75.848L113.469,75.848L111.909,81.208C111.775,81.634 111.529,81.981 111.169,82.248C110.809,82.514 110.402,82.648 109.949,82.648C109.389,82.648 108.902,82.448 108.489,82.048C108.075,81.648 107.869,81.168 107.869,80.608ZM114.669,71.808L121.189,71.808L117.909,60.688L114.669,71.808Z" style="fill-rule:nonzero;"/>
            <path d="M136.909,73.688L136.909,67.168C136.909,66.874 136.929,66.581 136.969,66.288C137.009,65.994 137.049,65.741 137.089,65.528C137.129,65.314 137.222,65.074 137.369,64.808C137.515,64.541 137.615,64.341 137.669,64.208C137.722,64.074 137.855,63.881 138.069,63.628C138.282,63.374 138.415,63.208 138.469,63.128C138.522,63.048 138.689,62.888 138.969,62.648C139.249,62.408 139.409,62.268 139.449,62.228C139.489,62.188 139.662,62.041 139.969,61.788C140.275,61.534 140.442,61.394 140.469,61.368C141.562,60.408 142.855,59.928 144.349,59.928L147.349,59.928C147.775,59.928 148.189,59.974 148.589,60.068C148.989,60.161 149.315,60.254 149.569,60.348C149.822,60.441 150.149,60.621 150.549,60.888C150.949,61.154 151.202,61.328 151.309,61.408C151.415,61.488 151.675,61.714 152.089,62.088C152.502,62.461 152.735,62.661 152.789,62.688L152.789,61.968C152.789,61.408 152.982,60.928 153.369,60.528C153.755,60.128 154.229,59.928 154.789,59.928C155.349,59.928 155.829,60.128 156.229,60.528C156.629,60.928 156.829,61.408 156.829,61.968L156.829,83.888C156.829,84.314 156.802,84.708 156.749,85.068C156.695,85.428 156.575,85.781 156.389,86.128C156.202,86.474 156.062,86.748 155.969,86.948C155.875,87.148 155.655,87.421 155.309,87.768C154.962,88.114 154.755,88.328 154.689,88.408C154.622,88.488 154.362,88.728 153.909,89.128L153.229,89.688C152.135,90.648 150.842,91.128 149.349,91.128L140.909,91.128C140.349,91.128 139.869,90.934 139.469,90.548C139.069,90.161 138.869,89.688 138.869,89.128C138.869,88.568 139.069,88.088 139.469,87.688C139.869,87.288 140.349,87.088 140.909,87.088L149.349,87.088C149.722,87.088 150.062,86.994 150.369,86.808C150.675,86.621 151.015,86.354 151.389,86.008C151.762,85.661 151.989,85.448 152.069,85.368C152.549,84.994 152.789,84.501 152.789,83.888L152.789,78.248C152.175,78.808 151.669,79.248 151.269,79.568C150.869,79.888 150.309,80.201 149.589,80.508C148.869,80.814 148.122,80.968 147.349,80.968L144.349,80.968C143.949,80.968 143.542,80.921 143.129,80.828C142.715,80.734 142.389,80.648 142.149,80.568C141.909,80.488 141.589,80.308 141.189,80.028C140.789,79.748 140.542,79.574 140.449,79.508C140.355,79.441 140.095,79.208 139.669,78.808L138.989,78.248C137.602,77.048 136.909,75.528 136.909,73.688ZM140.909,73.688C140.909,74.408 141.302,75.128 142.089,75.848C142.875,76.568 143.629,76.928 144.349,76.928L147.349,76.928C147.882,76.928 148.309,76.768 148.629,76.448L152.069,73.488C152.549,73.114 152.789,72.621 152.789,72.008L152.789,68.888C152.789,68.328 152.549,67.834 152.069,67.408L148.629,64.448C148.309,64.128 147.882,63.968 147.349,63.968L144.349,63.968C143.949,63.968 143.595,64.061 143.289,64.248C142.982,64.434 142.669,64.688 142.349,65.008C142.029,65.328 141.789,65.541 141.629,65.648C141.149,66.128 140.909,66.634 140.909,67.168L140.909,73.688Z" style="fill-rule:nonzero;"/>
            <path d="M167.789,80.608C167.789,80.074 167.989,79.608 168.389,79.208C168.789,78.808 169.269,78.608 169.829,78.608L173.789,78.608L173.789,63.968L169.829,63.968C169.269,63.968 168.789,63.774 168.389,63.388C167.989,63.001 167.789,62.528 167.789,61.968C167.789,61.408 167.989,60.928 168.389,60.528C168.789,60.128 169.269,59.928 169.829,59.928L175.789,59.928C176.322,59.928 176.789,60.128 177.189,60.528C177.589,60.928 177.789,61.408 177.789,61.968L177.789,78.608L181.709,78.608C182.269,78.608 182.749,78.808 183.149,79.208C183.549,79.608 183.749,80.074 183.749,80.608C183.749,81.168 183.549,81.648 183.149,82.048C182.749,82.448 182.269,82.648 181.709,82.648L169.829,82.648C169.269,82.648 168.789,82.448 168.389,82.048C167.989,81.648 167.789,81.168 167.789,80.608ZM171.749,53.448L171.749,51.768C171.749,51.208 171.949,50.734 172.349,50.348C172.749,49.961 173.229,49.768 173.789,49.768L175.789,49.768C176.322,49.768 176.789,49.961 177.189,50.348C177.589,50.734 177.789,51.208 177.789,51.768L177.789,53.448C177.789,54.008 177.589,54.488 177.189,54.888C176.789,55.288 176.322,55.488 175.789,55.488L173.789,55.488C173.229,55.488 172.749,55.288 172.349,54.888C171.949,54.488 171.749,54.008 171.749,53.448Z" style="fill-rule:nonzero;"/>
            <path d="M196.709,80.608C196.709,80.074 196.909,79.608 197.309,79.208C197.709,78.808 198.189,78.608 198.749,78.608L202.669,78.608L202.669,55.488L198.749,55.488C198.189,55.488 197.709,55.288 197.309,54.888C196.909,54.488 196.709,54.008 196.709,53.448C196.709,52.914 196.909,52.448 197.309,52.048C197.709,51.648 198.189,51.448 198.749,51.448L204.709,51.448C205.242,51.448 205.709,51.648 206.109,52.048C206.509,52.448 206.709,52.914 206.709,53.448L206.709,78.608L210.629,78.608C211.189,78.608 211.669,78.808 212.069,79.208C212.469,79.608 212.669,80.074 212.669,80.608C212.669,81.168 212.469,81.648 212.069,82.048C211.669,82.448 211.189,82.648 210.629,82.648L198.749,82.648C198.189,82.648 197.709,82.448 197.309,82.048C196.909,81.648 196.709,81.168 196.709,80.608Z" style="fill-rule:nonzero;"/>
            <path d="M223.669,75.408L223.669,67.168C223.669,66.234 223.882,65.368 224.309,64.568C224.735,63.768 225.122,63.208 225.469,62.888C225.815,62.568 226.402,62.061 227.229,61.368C228.322,60.408 229.615,59.928 231.109,59.928L236.109,59.928C236.375,59.928 236.635,59.941 236.889,59.968C237.142,59.994 237.402,60.048 237.669,60.128C237.935,60.208 238.149,60.274 238.309,60.328C238.469,60.381 238.682,60.488 238.949,60.648C239.215,60.808 239.395,60.914 239.489,60.968C239.582,61.021 239.762,61.161 240.029,61.388C240.295,61.614 240.455,61.741 240.509,61.768C240.562,61.794 240.735,61.941 241.029,62.208L241.469,62.608C242.882,63.834 243.589,65.354 243.589,67.168L243.589,72.128C243.589,72.688 243.389,73.168 242.989,73.568C242.589,73.968 242.109,74.168 241.549,74.168L227.709,74.168L227.709,75.408C227.709,75.728 227.789,76.034 227.949,76.328C228.109,76.621 228.275,76.848 228.449,77.008C228.622,77.168 228.869,77.374 229.189,77.628C229.509,77.881 229.722,78.048 229.829,78.128C230.229,78.448 230.655,78.608 231.109,78.608L241.549,78.608C242.109,78.608 242.589,78.808 242.989,79.208C243.389,79.608 243.589,80.074 243.589,80.608C243.589,81.168 243.389,81.648 242.989,82.048C242.589,82.448 242.109,82.648 241.549,82.648L231.109,82.648C230.815,82.648 230.542,82.634 230.289,82.608C230.035,82.581 229.782,82.528 229.529,82.448C229.275,82.368 229.055,82.294 228.869,82.228C228.682,82.161 228.475,82.061 228.249,81.928C228.022,81.794 227.842,81.688 227.709,81.608C227.575,81.528 227.395,81.394 227.169,81.208C226.942,81.021 226.789,80.894 226.709,80.828C226.629,80.761 226.462,80.614 226.209,80.388C225.955,80.161 225.802,80.021 225.749,79.968C224.362,78.821 223.669,77.301 223.669,75.408ZM227.709,70.128L239.549,70.128L239.549,67.168C239.549,66.474 239.149,65.768 238.349,65.048C237.549,64.328 236.802,63.968 236.109,63.968L231.109,63.968C230.735,63.968 230.402,64.048 230.109,64.208C229.815,64.368 229.469,64.648 229.069,65.048C228.669,65.448 228.442,65.661 228.389,65.688C227.935,66.061 227.709,66.554 227.709,67.168L227.709,70.128Z" style="fill-rule:nonzero;"/>
            <path d="M281.509,76.648L281.509,69.328C281.509,67.674 282.095,66.261 283.269,65.088C284.442,63.914 285.842,63.328 287.469,63.328L291.469,63.328C292.002,63.328 292.469,63.528 292.869,63.928C293.269,64.328 293.469,64.808 293.469,65.368L293.469,76.648C293.469,77.181 293.662,77.641 294.049,78.028C294.435,78.414 294.895,78.608 295.429,78.608C295.962,78.608 296.422,78.414 296.809,78.028C297.195,77.641 297.389,77.181 297.389,76.648L297.389,58.568C297.389,57.714 297.082,56.988 296.469,56.388C295.855,55.788 295.135,55.488 294.309,55.488L288.589,55.488C287.922,55.488 287.289,55.721 286.689,56.188C286.089,56.654 285.629,57.194 285.309,57.808C284.935,58.528 284.335,58.888 283.509,58.888C282.949,58.888 282.475,58.688 282.089,58.288C281.702,57.888 281.509,57.408 281.509,56.848C281.509,55.888 282.229,54.754 283.669,53.448C285.135,52.114 286.775,51.448 288.589,51.448L294.309,51.448C296.255,51.448 297.929,52.154 299.329,53.568C300.729,54.981 301.429,56.648 301.429,58.568L301.429,76.648C301.429,78.274 300.835,79.681 299.649,80.868C298.462,82.054 297.055,82.648 295.429,82.648C293.909,82.648 292.589,82.128 291.469,81.088C290.295,82.128 288.962,82.648 287.469,82.648C285.842,82.648 284.442,82.061 283.269,80.888C282.095,79.714 281.509,78.301 281.509,76.648ZM285.549,76.648C285.549,77.181 285.735,77.641 286.109,78.028C286.482,78.414 286.935,78.608 287.469,78.608C288.002,78.608 288.462,78.414 288.849,78.028C289.235,77.641 289.429,77.181 289.429,76.648L289.429,67.368L287.469,67.368C286.935,67.368 286.482,67.561 286.109,67.948C285.735,68.334 285.549,68.794 285.549,69.328L285.549,76.648Z" style="fill-rule:nonzero;"/>
            <path d="M339.349,80.608C339.349,80.074 339.542,79.608 339.929,79.208C340.315,78.808 340.789,78.608 341.349,78.608L347.269,78.608L347.269,55.488L341.349,55.488C340.789,55.488 340.315,55.288 339.929,54.888C339.542,54.488 339.349,54.008 339.349,53.448C339.349,52.914 339.542,52.448 339.929,52.048C340.315,51.648 340.789,51.448 341.349,51.448L357.229,51.448C357.789,51.448 358.269,51.648 358.669,52.048C359.069,52.448 359.269,52.914 359.269,53.448C359.269,54.008 359.069,54.488 358.669,54.888C358.269,55.288 357.789,55.488 357.229,55.488L351.309,55.488L351.309,78.608L357.229,78.608C357.789,78.608 358.269,78.808 358.669,79.208C359.069,79.608 359.269,80.074 359.269,80.608C359.269,81.168 359.069,81.648 358.669,82.048C358.269,82.448 357.789,82.648 357.229,82.648L341.349,82.648C340.789,82.648 340.315,82.448 339.929,82.048C339.542,81.648 339.349,81.168 339.349,80.608Z" style="fill-rule:nonzero;"/>
            <path d="M368.269,56.848L368.269,51.448L388.189,51.448L388.189,56.848C388.189,57.408 387.989,57.888 387.589,58.288C387.189,58.688 386.709,58.888 386.149,58.888C385.589,58.888 385.115,58.688 384.729,58.288C384.342,57.888 384.149,57.408 384.149,56.848L384.149,55.488L380.229,55.488L380.229,80.608C380.229,81.168 380.029,81.648 379.629,82.048C379.229,82.448 378.762,82.648 378.229,82.648C377.669,82.648 377.189,82.448 376.789,82.048C376.389,81.648 376.189,81.168 376.189,80.608L376.189,55.488L372.309,55.488L372.309,56.848C372.309,57.408 372.109,57.888 371.709,58.288C371.309,58.688 370.829,58.888 370.269,58.888C369.709,58.888 369.235,58.688 368.849,58.288C368.462,57.888 368.269,57.408 368.269,56.848Z" style="fill-rule:nonzero;"/>
        </g>
        <g transform="matrix(1,0,0,1,-71.423,22.4337)">
            <path d="M127.098,130.359L127.098,107.031L141.402,107.031C141.85,107.031 142.234,107.191 142.554,107.511C142.874,107.831 143.034,108.205 143.034,108.631C143.034,109.079 142.874,109.463 142.554,109.783C142.234,110.103 141.85,110.263 141.402,110.263L130.33,110.263L130.33,115.191L138.234,115.191C138.682,115.191 139.06,115.346 139.37,115.655C139.679,115.965 139.834,116.343 139.834,116.791C139.834,117.239 139.679,117.623 139.37,117.943C139.06,118.263 138.682,118.423 138.234,118.423L130.33,118.423L130.33,130.359C130.33,130.807 130.17,131.191 129.85,131.511C129.53,131.831 129.146,131.991 128.698,131.991C128.25,131.991 127.871,131.831 127.562,131.511C127.252,131.191 127.098,130.807 127.098,130.359Z" style="fill-rule:nonzero;"/>
            <path d="M150.234,130.359L150.234,115.447C150.234,114.999 150.388,114.615 150.698,114.295C151.007,113.975 151.386,113.815 151.834,113.815C152.282,113.815 152.666,113.975 152.986,114.295C153.306,114.615 153.466,114.999 153.466,115.447L153.466,117.335L157.274,114.071C157.508,113.901 157.818,113.815 158.202,113.815L161.37,113.815C162.671,113.815 163.796,114.29 164.746,115.239C165.695,116.189 166.17,117.314 166.17,118.615L166.17,119.511C166.17,119.959 166.01,120.338 165.69,120.647C165.37,120.957 164.986,121.111 164.538,121.111C164.09,121.111 163.711,120.957 163.402,120.647C163.092,120.338 162.938,119.959 162.938,119.511L162.938,118.615C162.938,118.189 162.783,117.821 162.474,117.511C162.164,117.202 161.796,117.047 161.37,117.047L158.778,117.047L153.466,121.623L153.466,130.359C153.466,130.807 153.306,131.191 152.986,131.511C152.666,131.831 152.282,131.991 151.834,131.991C151.386,131.991 151.007,131.831 150.698,131.511C150.388,131.191 150.234,130.807 150.234,130.359Z" style="fill-rule:nonzero;"/>
            <path d="M173.37,126.199L173.37,119.607C173.37,118.861 173.54,118.167 173.882,117.527C174.223,116.887 174.532,116.439 174.81,116.183C175.087,115.927 175.556,115.522 176.218,114.967C177.092,114.199 178.127,113.815 179.322,113.815L183.322,113.815C183.599,113.815 183.866,113.831 184.122,113.863C184.378,113.895 184.634,113.97 184.89,114.087C185.146,114.205 185.348,114.29 185.498,114.343C185.647,114.397 185.85,114.525 186.106,114.727C186.362,114.93 186.527,115.058 186.602,115.111C186.676,115.165 186.858,115.314 187.146,115.559C187.434,115.805 187.588,115.938 187.61,115.959C188.74,116.941 189.306,118.157 189.306,119.607L189.306,126.199C189.306,126.541 189.284,126.855 189.242,127.143C189.199,127.431 189.103,127.714 188.954,127.991C188.804,128.269 188.692,128.487 188.618,128.647C188.543,128.807 188.367,129.026 188.09,129.303C187.812,129.581 187.647,129.751 187.594,129.815C187.54,129.879 187.332,130.071 186.97,130.391L186.426,130.839C185.551,131.607 184.516,131.991 183.322,131.991L179.322,131.991C178.98,131.991 178.655,131.954 178.346,131.879C178.036,131.805 177.775,131.73 177.562,131.655C177.348,131.581 177.098,131.447 176.81,131.255C176.522,131.063 176.319,130.925 176.202,130.839C176.084,130.754 175.882,130.583 175.594,130.327C175.306,130.071 175.119,129.911 175.034,129.847C173.924,128.93 173.37,127.714 173.37,126.199ZM176.602,126.199C176.602,126.455 176.666,126.701 176.794,126.935C176.922,127.17 177.055,127.351 177.194,127.479C177.332,127.607 177.53,127.773 177.786,127.975C178.042,128.178 178.212,128.311 178.298,128.375C178.618,128.631 178.959,128.759 179.322,128.759L183.322,128.759C183.62,128.759 183.887,128.695 184.122,128.567C184.356,128.439 184.634,128.215 184.954,127.895C185.274,127.575 185.455,127.405 185.498,127.383C185.882,127.085 186.074,126.69 186.074,126.199L186.074,119.607C186.074,119.053 185.754,118.487 185.114,117.911C184.474,117.335 183.876,117.047 183.322,117.047L179.322,117.047C179.023,117.047 178.756,117.111 178.522,117.239C178.287,117.367 178.01,117.591 177.69,117.911C177.37,118.231 177.188,118.402 177.146,118.423C176.783,118.722 176.602,119.117 176.602,119.607L176.602,126.199Z" style="fill-rule:nonzero;"/>
            <path d="M196.25,130.359L196.25,115.447C196.25,114.999 196.404,114.615 196.714,114.295C197.023,113.975 197.402,113.815 197.85,113.815C198.191,113.815 198.506,113.922 198.794,114.135C199.082,114.349 199.279,114.615 199.386,114.935C200.26,114.189 201.178,113.815 202.138,113.815C203.439,113.815 204.474,114.327 205.242,115.351L205.946,114.775C206.65,114.199 207.45,113.911 208.346,113.911C209.348,113.911 210.234,114.263 211.002,114.967C211.77,115.671 212.164,116.525 212.186,117.527L212.666,130.359C212.666,130.807 212.511,131.191 212.202,131.511C211.892,131.831 211.514,131.991 211.066,131.991C210.639,131.991 210.266,131.837 209.946,131.527C209.626,131.218 209.455,130.85 209.434,130.423L208.986,117.655C208.943,117.25 208.762,117.047 208.442,117.047L208.25,117.047L206.074,118.903L206.074,130.359C206.074,130.807 205.914,131.191 205.594,131.511C205.274,131.831 204.9,131.991 204.474,131.991C204.026,131.991 203.642,131.831 203.322,131.511C203.002,131.191 202.842,130.807 202.842,130.359L202.842,117.751C202.842,117.282 202.607,117.047 202.138,117.047L201.882,117.047L199.482,119.127L199.482,130.359C199.482,130.807 199.322,131.191 199.002,131.511C198.682,131.831 198.298,131.991 197.85,131.991C197.402,131.991 197.023,131.831 196.714,131.511C196.404,131.191 196.25,130.807 196.25,130.359Z" style="fill-rule:nonzero;"/>
            <path d="M224.378,126.295L224.378,123.575C224.378,123.127 224.538,122.749 224.858,122.439C225.178,122.13 225.562,121.975 226.01,121.975L229.178,121.975C229.626,121.975 230.01,122.13 230.33,122.439C230.65,122.749 230.81,123.127 230.81,123.575L230.81,126.295C230.81,126.743 230.65,127.127 230.33,127.447C230.01,127.767 229.626,127.927 229.178,127.927L226.01,127.927C225.562,127.927 225.178,127.767 224.858,127.447C224.538,127.127 224.378,126.743 224.378,126.295ZM224.378,115.447L224.378,112.727C224.378,112.279 224.538,111.895 224.858,111.575C225.178,111.255 225.562,111.095 226.01,111.095L229.178,111.095C229.626,111.095 230.01,111.255 230.33,111.575C230.65,111.895 230.81,112.279 230.81,112.727L230.81,115.447C230.81,115.895 230.65,116.274 230.33,116.583C230.01,116.893 229.626,117.047 229.178,117.047L226.01,117.047C225.562,117.047 225.178,116.893 224.858,116.583C224.538,116.274 224.378,115.895 224.378,115.447Z" style="fill-rule:nonzero;"/>
            <path d="M265.914,130.359C265.914,129.933 266.068,129.559 266.378,129.239C266.687,128.919 267.066,128.759 267.514,128.759L269.082,128.759L269.082,110.263L267.514,110.263C267.066,110.263 266.687,110.103 266.378,109.783C266.068,109.463 265.914,109.079 265.914,108.631C265.914,108.205 266.068,107.831 266.378,107.511C266.687,107.191 267.066,107.031 267.514,107.031L273.466,107.031C274.404,107.031 275.263,107.287 276.042,107.799C276.82,108.311 277.402,108.951 277.786,109.719L281.05,116.215C281.583,117.325 281.85,118.423 281.85,119.511C281.85,120.599 281.583,121.698 281.05,122.807L277.818,129.335C277.476,130.103 276.906,130.738 276.106,131.239C275.306,131.741 274.426,131.991 273.466,131.991L267.514,131.991C267.066,131.991 266.687,131.831 266.378,131.511C266.068,131.191 265.914,130.807 265.914,130.359ZM272.314,128.759L273.466,128.759C274.127,128.759 274.596,128.461 274.874,127.863L278.17,121.367C278.468,120.642 278.618,120.023 278.618,119.511C278.618,118.871 278.468,118.253 278.17,117.655L274.874,111.159C274.596,110.562 274.127,110.263 273.466,110.263L272.314,110.263L272.314,128.759Z" style="fill-rule:nonzero;"/>
            <path d="M289.05,126.199L289.05,119.607C289.05,118.861 289.22,118.167 289.562,117.527C289.903,116.887 290.212,116.439 290.49,116.183C290.767,115.927 291.236,115.522 291.898,114.967C292.772,114.199 293.807,113.815 295.002,113.815L299.002,113.815C299.215,113.815 299.423,113.826 299.626,113.847C299.828,113.869 300.036,113.911 300.25,113.975C300.463,114.039 300.634,114.093 300.762,114.135C300.89,114.178 301.06,114.263 301.274,114.391C301.487,114.519 301.631,114.605 301.706,114.647C301.78,114.69 301.924,114.802 302.138,114.983C302.351,115.165 302.479,115.266 302.522,115.287C302.564,115.309 302.703,115.426 302.938,115.639L303.29,115.959C304.42,116.941 304.986,118.157 304.986,119.607L304.986,123.575C304.986,124.023 304.826,124.407 304.506,124.727C304.186,125.047 303.802,125.207 303.354,125.207L292.282,125.207L292.282,126.199C292.282,126.455 292.346,126.701 292.474,126.935C292.602,127.17 292.735,127.351 292.874,127.479C293.012,127.607 293.21,127.773 293.466,127.975C293.722,128.178 293.892,128.311 293.978,128.375C294.298,128.631 294.639,128.759 295.002,128.759L303.354,128.759C303.802,128.759 304.186,128.919 304.506,129.239C304.826,129.559 304.986,129.933 304.986,130.359C304.986,130.807 304.826,131.191 304.506,131.511C304.186,131.831 303.802,131.991 303.354,131.991L295.002,131.991C294.767,131.991 294.548,131.981 294.346,131.959C294.143,131.938 293.94,131.895 293.738,131.831C293.535,131.767 293.359,131.709 293.21,131.655C293.06,131.602 292.895,131.522 292.714,131.415C292.532,131.309 292.388,131.223 292.282,131.159C292.175,131.095 292.031,130.989 291.85,130.839C291.668,130.69 291.546,130.589 291.482,130.535C291.418,130.482 291.284,130.365 291.082,130.183C290.879,130.002 290.756,129.89 290.714,129.847C289.604,128.93 289.05,127.714 289.05,126.199ZM292.282,121.975L301.754,121.975L301.754,119.607C301.754,119.053 301.434,118.487 300.794,117.911C300.154,117.335 299.556,117.047 299.002,117.047L295.002,117.047C294.703,117.047 294.436,117.111 294.202,117.239C293.967,117.367 293.69,117.591 293.37,117.911C293.05,118.231 292.868,118.402 292.826,118.423C292.463,118.722 292.282,119.117 292.282,119.607L292.282,121.975Z" style="fill-rule:nonzero;"/>
            <path d="M312.186,118.167L312.186,115.447C312.186,114.999 312.34,114.615 312.65,114.295C312.959,113.975 313.338,113.815 313.786,113.815C314.234,113.815 314.618,113.975 314.938,114.295C315.258,114.615 315.418,114.999 315.418,115.447L315.418,117.815L320.122,128.663L324.89,117.815L324.89,115.447C324.89,114.999 325.044,114.615 325.354,114.295C325.663,113.975 326.042,113.815 326.49,113.815C326.938,113.815 327.322,113.975 327.642,114.295C327.962,114.615 328.122,114.999 328.122,115.447L328.122,118.167C328.122,118.381 328.068,118.594 327.962,118.807L322.618,131.031C322.34,131.671 321.85,131.991 321.146,131.991L319.13,131.991C318.426,131.991 317.935,131.671 317.658,131.031L312.314,118.807C312.228,118.637 312.186,118.423 312.186,118.167Z" style="fill-rule:nonzero;"/>
            <path d="M335.322,119.511C335.322,118.381 335.578,117.282 336.09,116.215L339.514,109.335C339.855,108.674 340.362,108.125 341.034,107.687C341.706,107.25 342.447,107.031 343.258,107.031C344.09,107.031 344.842,107.25 345.514,107.687C346.186,108.125 346.692,108.674 347.034,109.335L350.458,116.215C350.991,117.325 351.258,118.423 351.258,119.511C351.258,120.599 350.991,121.698 350.458,122.807L347.034,129.687C346.692,130.349 346.186,130.898 345.514,131.335C344.842,131.773 344.09,131.991 343.258,131.991C342.447,131.991 341.706,131.773 341.034,131.335C340.362,130.898 339.855,130.349 339.514,129.687L336.09,122.807C335.578,121.826 335.322,120.727 335.322,119.511ZM338.554,119.511C338.554,120.151 338.692,120.77 338.97,121.367L342.426,128.215C342.596,128.578 342.874,128.759 343.258,128.759C343.684,128.759 343.983,128.589 344.154,128.247L347.578,121.367C347.876,120.642 348.026,120.023 348.026,119.511C348.026,118.871 347.876,118.253 347.578,117.655L344.122,110.839C343.951,110.455 343.663,110.263 343.258,110.263C342.895,110.263 342.618,110.455 342.426,110.839L338.97,117.655C338.692,118.253 338.554,118.871 338.554,119.511Z" style="fill-rule:nonzero;"/>
            <path d="M358.458,137.175L358.458,114.743C358.458,114.317 358.612,113.943 358.922,113.623C359.231,113.303 359.61,113.143 360.058,113.143C360.506,113.143 360.89,113.303 361.21,113.623C361.53,113.943 361.69,114.317 361.69,114.743L361.69,115.607C361.732,115.565 361.855,115.437 362.058,115.223C362.26,115.01 362.394,114.877 362.458,114.823C362.522,114.77 362.65,114.653 362.842,114.471C363.034,114.29 363.183,114.167 363.29,114.103C363.396,114.039 363.546,113.938 363.738,113.799C363.93,113.661 364.106,113.565 364.266,113.511C364.426,113.458 364.607,113.394 364.81,113.319C365.012,113.245 365.226,113.197 365.45,113.175C365.674,113.154 365.903,113.143 366.138,113.143L366.81,113.143C367.428,113.143 368.031,113.271 368.618,113.527C369.204,113.783 369.642,114.023 369.93,114.247C370.218,114.471 370.628,114.829 371.162,115.319C371.204,115.362 371.482,115.602 371.994,116.039C372.506,116.477 372.826,116.775 372.954,116.935C373.082,117.095 373.3,117.378 373.61,117.783C373.919,118.189 374.127,118.594 374.234,118.999C374.34,119.405 374.394,119.853 374.394,120.343L374.394,125.495C374.394,126.946 373.828,128.162 372.698,129.143L369.946,131.511C369.071,132.279 368.026,132.663 366.81,132.663L366.138,132.663C365.476,132.663 364.852,132.535 364.266,132.279C363.679,132.023 363.215,131.746 362.874,131.447C362.532,131.149 362.138,130.754 361.69,130.263L361.69,137.175C361.69,137.623 361.53,138.002 361.21,138.311C360.89,138.621 360.506,138.775 360.058,138.775C359.61,138.775 359.231,138.621 358.922,138.311C358.612,138.002 358.458,137.623 358.458,137.175ZM361.69,124.983C361.69,125.239 361.743,125.479 361.85,125.703C361.956,125.927 362.063,126.098 362.17,126.215C362.276,126.333 362.442,126.487 362.666,126.679C362.89,126.871 363.034,126.999 363.098,127.063C363.247,127.213 363.45,127.421 363.706,127.687C363.962,127.954 364.196,128.194 364.41,128.407C364.623,128.621 364.826,128.813 365.018,128.983C365.316,129.282 365.69,129.431 366.138,129.431L366.81,129.431C367.236,129.431 367.578,129.303 367.834,129.047L370.618,126.679C370.98,126.402 371.162,126.007 371.162,125.495L371.162,120.343C371.162,119.831 370.98,119.437 370.618,119.159L367.834,116.759C367.578,116.503 367.236,116.375 366.81,116.375L366.138,116.375C365.69,116.375 365.316,116.525 365.018,116.823L362.138,119.735C361.839,119.97 361.69,120.333 361.69,120.823L361.69,124.983Z" style="fill-rule:nonzero;"/>
            <path d="M381.594,129.015C381.594,128.567 381.743,128.189 382.042,127.879C382.34,127.57 382.714,127.415 383.162,127.415C383.546,127.415 383.94,127.57 384.346,127.879C384.751,128.189 385.05,128.375 385.242,128.439C385.284,128.461 385.412,128.519 385.626,128.615C385.839,128.711 385.988,128.759 386.074,128.759L392.57,128.759C393.082,128.759 393.482,128.589 393.77,128.247C394.058,127.906 394.202,127.501 394.202,127.031C394.202,126.306 393.892,125.805 393.274,125.527L384.41,121.687C383.684,121.367 383.098,120.85 382.65,120.135C382.202,119.421 381.978,118.647 381.978,117.815C381.978,116.727 382.372,115.799 383.162,115.031C383.972,114.221 384.943,113.815 386.074,113.815L392.922,113.815C394.522,113.815 395.834,114.487 396.858,115.831C397.071,116.109 397.178,116.429 397.178,116.791C397.178,117.239 397.018,117.623 396.698,117.943C396.378,118.263 395.994,118.423 395.546,118.423C395.162,118.423 394.73,118.194 394.25,117.735C393.77,117.277 393.327,117.047 392.922,117.047L386.074,117.047C385.796,117.047 385.578,117.143 385.418,117.335C385.258,117.527 385.178,117.741 385.178,117.975C385.178,118.359 385.348,118.615 385.69,118.743L394.586,122.583C395.396,122.946 396.084,123.538 396.65,124.359C397.215,125.181 397.498,126.082 397.498,127.063L397.498,127.127C397.476,128.471 396.986,129.618 396.026,130.567C395.066,131.517 393.914,131.991 392.57,131.991L386.522,131.991C384.964,131.991 383.524,131.426 382.202,130.295C381.796,129.954 381.594,129.527 381.594,129.015Z" style="fill-rule:nonzero;"/>
        </g>
        <g transform="matrix(1,0,0,1,-36.5317,15.7525)">
            <path d="M138.523,166.303L138.523,161.983L154.459,161.983L154.459,166.303C154.459,166.751 154.299,167.135 153.979,167.455C153.659,167.775 153.275,167.935 152.827,167.935C152.379,167.935 152.001,167.775 151.691,167.455C151.382,167.135 151.227,166.751 151.227,166.303L151.227,165.215L148.091,165.215L148.091,185.311C148.091,185.759 147.931,186.143 147.611,186.463C147.291,186.783 146.918,186.943 146.491,186.943C146.043,186.943 145.659,186.783 145.339,186.463C145.019,186.143 144.859,185.759 144.859,185.311L144.859,165.215L141.755,165.215L141.755,166.303C141.755,166.751 141.595,167.135 141.275,167.455C140.955,167.775 140.571,167.935 140.123,167.935C139.675,167.935 139.297,167.775 138.987,167.455C138.678,167.135 138.523,166.751 138.523,166.303Z" style="fill-rule:nonzero;"/>
            <path d="M161.659,181.151L161.659,174.559C161.659,173.812 161.83,173.119 162.171,172.479C162.513,171.839 162.822,171.391 163.099,171.135C163.377,170.879 163.846,170.474 164.507,169.919C165.382,169.151 166.417,168.767 167.611,168.767L171.611,168.767C171.889,168.767 172.155,168.783 172.411,168.815C172.667,168.847 172.923,168.922 173.179,169.039C173.435,169.156 173.638,169.242 173.787,169.295C173.937,169.348 174.139,169.476 174.395,169.679C174.651,169.882 174.817,170.01 174.891,170.063C174.966,170.116 175.147,170.266 175.435,170.511C175.723,170.756 175.878,170.89 175.899,170.911C177.03,171.892 177.595,173.108 177.595,174.559L177.595,181.151C177.595,181.492 177.574,181.807 177.531,182.095C177.489,182.383 177.393,182.666 177.243,182.943C177.094,183.22 176.982,183.439 176.907,183.599C176.833,183.759 176.657,183.978 176.379,184.255C176.102,184.532 175.937,184.703 175.883,184.767C175.83,184.831 175.622,185.023 175.259,185.343L174.715,185.791C173.841,186.559 172.806,186.943 171.611,186.943L167.611,186.943C167.27,186.943 166.945,186.906 166.635,186.831C166.326,186.756 166.065,186.682 165.851,186.607C165.638,186.532 165.387,186.399 165.099,186.207C164.811,186.015 164.609,185.876 164.491,185.791C164.374,185.706 164.171,185.535 163.883,185.279C163.595,185.023 163.409,184.863 163.323,184.799C162.214,183.882 161.659,182.666 161.659,181.151ZM164.891,181.151C164.891,181.407 164.955,181.652 165.083,181.887C165.211,182.122 165.345,182.303 165.483,182.431C165.622,182.559 165.819,182.724 166.075,182.927C166.331,183.13 166.502,183.263 166.587,183.327C166.907,183.583 167.249,183.711 167.611,183.711L171.611,183.711C171.91,183.711 172.177,183.647 172.411,183.519C172.646,183.391 172.923,183.167 173.243,182.847C173.563,182.527 173.745,182.356 173.787,182.335C174.171,182.036 174.363,181.642 174.363,181.151L174.363,174.559C174.363,174.004 174.043,173.439 173.403,172.863C172.763,172.287 172.166,171.999 171.611,171.999L167.611,171.999C167.313,171.999 167.046,172.063 166.811,172.191C166.577,172.319 166.299,172.543 165.979,172.863C165.659,173.183 165.478,173.354 165.435,173.375C165.073,173.674 164.891,174.068 164.891,174.559L164.891,181.151Z" style="fill-rule:nonzero;"/>
            <path d="M189.531,181.247L189.531,178.527C189.531,178.079 189.691,177.7 190.011,177.391C190.331,177.082 190.715,176.927 191.163,176.927L194.331,176.927C194.779,176.927 195.163,177.082 195.483,177.391C195.803,177.7 195.963,178.079 195.963,178.527L195.963,181.247C195.963,181.695 195.803,182.079 195.483,182.399C195.163,182.719 194.779,182.879 194.331,182.879L191.163,182.879C190.715,182.879 190.331,182.719 190.011,182.399C189.691,182.079 189.531,181.695 189.531,181.247ZM189.531,170.399L189.531,167.679C189.531,167.231 189.691,166.847 190.011,166.527C190.331,166.207 190.715,166.047 191.163,166.047L194.331,166.047C194.779,166.047 195.163,166.207 195.483,166.527C195.803,166.847 195.963,167.231 195.963,167.679L195.963,170.399C195.963,170.847 195.803,171.226 195.483,171.535C195.163,171.844 194.779,171.999 194.331,171.999L191.163,171.999C190.715,171.999 190.331,171.844 190.011,171.535C189.691,171.226 189.531,170.847 189.531,170.399Z" style="fill-rule:nonzero;"/>
            <path d="M231.067,185.311C231.067,184.884 231.222,184.511 231.531,184.191C231.841,183.871 232.219,183.711 232.667,183.711L234.235,183.711L234.235,165.215L232.667,165.215C232.219,165.215 231.841,165.055 231.531,164.735C231.222,164.415 231.067,164.031 231.067,163.583C231.067,163.156 231.222,162.783 231.531,162.463C231.841,162.143 232.219,161.983 232.667,161.983L238.619,161.983C239.558,161.983 240.417,162.239 241.195,162.751C241.974,163.263 242.555,163.903 242.939,164.671L246.203,171.167C246.737,172.276 247.003,173.375 247.003,174.463C247.003,175.551 246.737,176.65 246.203,177.759L242.971,184.287C242.63,185.055 242.059,185.69 241.259,186.191C240.459,186.692 239.579,186.943 238.619,186.943L232.667,186.943C232.219,186.943 231.841,186.783 231.531,186.463C231.222,186.143 231.067,185.759 231.067,185.311ZM237.467,183.711L238.619,183.711C239.281,183.711 239.75,183.412 240.027,182.815L243.323,176.319C243.622,175.594 243.771,174.975 243.771,174.463C243.771,173.823 243.622,173.204 243.323,172.607L240.027,166.111C239.75,165.514 239.281,165.215 238.619,165.215L237.467,165.215L237.467,183.711Z" style="fill-rule:nonzero;"/>
            <path d="M254.203,181.151L254.203,174.559C254.203,173.812 254.374,173.119 254.715,172.479C255.057,171.839 255.366,171.391 255.643,171.135C255.921,170.879 256.39,170.474 257.051,169.919C257.926,169.151 258.961,168.767 260.155,168.767L264.155,168.767C264.369,168.767 264.577,168.778 264.779,168.799C264.982,168.82 265.19,168.863 265.403,168.927C265.617,168.991 265.787,169.044 265.915,169.087C266.043,169.13 266.214,169.215 266.427,169.343C266.641,169.471 266.785,169.556 266.859,169.599C266.934,169.642 267.078,169.754 267.291,169.935C267.505,170.116 267.633,170.218 267.675,170.239C267.718,170.26 267.857,170.378 268.091,170.591L268.443,170.911C269.574,171.892 270.139,173.108 270.139,174.559L270.139,178.527C270.139,178.975 269.979,179.359 269.659,179.679C269.339,179.999 268.955,180.159 268.507,180.159L257.435,180.159L257.435,181.151C257.435,181.407 257.499,181.652 257.627,181.887C257.755,182.122 257.889,182.303 258.027,182.431C258.166,182.559 258.363,182.724 258.619,182.927C258.875,183.13 259.046,183.263 259.131,183.327C259.451,183.583 259.793,183.711 260.155,183.711L268.507,183.711C268.955,183.711 269.339,183.871 269.659,184.191C269.979,184.511 270.139,184.884 270.139,185.311C270.139,185.759 269.979,186.143 269.659,186.463C269.339,186.783 268.955,186.943 268.507,186.943L260.155,186.943C259.921,186.943 259.702,186.932 259.499,186.911C259.297,186.89 259.094,186.847 258.891,186.783C258.689,186.719 258.513,186.66 258.363,186.607C258.214,186.554 258.049,186.474 257.867,186.367C257.686,186.26 257.542,186.175 257.435,186.111C257.329,186.047 257.185,185.94 257.003,185.791C256.822,185.642 256.699,185.54 256.635,185.487C256.571,185.434 256.438,185.316 256.235,185.135C256.033,184.954 255.91,184.842 255.867,184.799C254.758,183.882 254.203,182.666 254.203,181.151ZM257.435,176.927L266.907,176.927L266.907,174.559C266.907,174.004 266.587,173.439 265.947,172.863C265.307,172.287 264.71,171.999 264.155,171.999L260.155,171.999C259.857,171.999 259.59,172.063 259.355,172.191C259.121,172.319 258.843,172.543 258.523,172.863C258.203,173.183 258.022,173.354 257.979,173.375C257.617,173.674 257.435,174.068 257.435,174.559L257.435,176.927Z" style="fill-rule:nonzero;"/>
            <path d="M277.339,173.119L277.339,170.399C277.339,169.951 277.494,169.567 277.803,169.247C278.113,168.927 278.491,168.767 278.939,168.767C279.387,168.767 279.771,168.927 280.091,169.247C280.411,169.567 280.571,169.951 280.571,170.399L280.571,172.767L285.275,183.615L290.043,172.767L290.043,170.399C290.043,169.951 290.198,169.567 290.507,169.247C290.817,168.927 291.195,168.767 291.643,168.767C292.091,168.767 292.475,168.927 292.795,169.247C293.115,169.567 293.275,169.951 293.275,170.399L293.275,173.119C293.275,173.332 293.222,173.546 293.115,173.759L287.771,185.983C287.494,186.623 287.003,186.943 286.299,186.943L284.283,186.943C283.579,186.943 283.089,186.623 282.811,185.983L277.467,173.759C277.382,173.588 277.339,173.375 277.339,173.119Z" style="fill-rule:nonzero;"/>
            <path d="M300.475,185.311L300.475,161.983L304.731,161.983L313.179,181.247L313.179,163.583C313.179,163.156 313.334,162.783 313.643,162.463C313.953,162.143 314.331,161.983 314.779,161.983C315.227,161.983 315.611,162.143 315.931,162.463C316.251,162.783 316.411,163.156 316.411,163.583L316.411,186.943L312.123,186.943L303.707,167.743L303.707,185.311C303.707,185.759 303.547,186.143 303.227,186.463C302.907,186.783 302.523,186.943 302.075,186.943C301.627,186.943 301.249,186.783 300.939,186.463C300.63,186.143 300.475,185.759 300.475,185.311Z" style="fill-rule:nonzero;"/>
            <path d="M323.611,170.399C323.611,169.951 323.766,169.567 324.075,169.247C324.385,168.927 324.763,168.767 325.211,168.767C325.638,168.767 326.011,168.922 326.331,169.231C326.651,169.54 326.811,169.908 326.811,170.335L327.227,182.207C327.27,182.634 327.435,182.991 327.723,183.279C328.011,183.567 328.369,183.711 328.795,183.711L331.067,183.711L336.315,180.383L336.315,170.399C336.315,169.951 336.47,169.567 336.779,169.247C337.089,168.927 337.467,168.767 337.915,168.767C338.363,168.767 338.747,168.927 339.067,169.247C339.387,169.567 339.547,169.951 339.547,170.399L339.547,185.311C339.547,185.759 339.387,186.143 339.067,186.463C338.747,186.783 338.363,186.943 337.915,186.943C337.467,186.943 337.089,186.783 336.779,186.463C336.47,186.143 336.315,185.759 336.315,185.311L336.315,184.191L333.211,186.175C332.401,186.687 331.537,186.943 330.619,186.943L328.795,186.943C327.515,186.943 326.406,186.49 325.467,185.583C324.529,184.676 324.038,183.594 323.995,182.335L323.611,170.399Z" style="fill-rule:nonzero;"/>
            <path d="M348.315,185.311C348.315,184.884 348.475,184.511 348.795,184.191C349.115,183.871 349.499,183.711 349.947,183.711L353.083,183.711L353.083,165.215L349.947,165.215C349.499,165.215 349.115,165.055 348.795,164.735C348.475,164.415 348.315,164.031 348.315,163.583C348.315,163.156 348.475,162.783 348.795,162.463C349.115,162.143 349.499,161.983 349.947,161.983L354.715,161.983C355.142,161.983 355.515,162.143 355.835,162.463C356.155,162.783 356.315,163.156 356.315,163.583L356.315,183.711L359.451,183.711C359.899,183.711 360.283,183.871 360.603,184.191C360.923,184.511 361.083,184.884 361.083,185.311C361.083,185.759 360.923,186.143 360.603,186.463C360.283,186.783 359.899,186.943 359.451,186.943L349.947,186.943C349.499,186.943 349.115,186.783 348.795,186.463C348.475,186.143 348.315,185.759 348.315,185.311Z" style="fill-rule:nonzero;"/>
            <path d="M371.451,185.311C371.451,184.884 371.611,184.511 371.931,184.191C372.251,183.871 372.635,183.711 373.083,183.711L376.219,183.711L376.219,165.215L373.083,165.215C372.635,165.215 372.251,165.055 371.931,164.735C371.611,164.415 371.451,164.031 371.451,163.583C371.451,163.156 371.611,162.783 371.931,162.463C372.251,162.143 372.635,161.983 373.083,161.983L377.851,161.983C378.278,161.983 378.651,162.143 378.971,162.463C379.291,162.783 379.451,163.156 379.451,163.583L379.451,183.711L382.587,183.711C383.035,183.711 383.419,183.871 383.739,184.191C384.059,184.511 384.219,184.884 384.219,185.311C384.219,185.759 384.059,186.143 383.739,186.463C383.419,186.783 383.035,186.943 382.587,186.943L373.083,186.943C372.635,186.943 372.251,186.783 371.931,186.463C371.611,186.143 371.451,185.759 371.451,185.311Z" style="fill-rule:nonzero;"/>
        </g>
    </g>
</svg>
